<?xml version="1.0" encoding="UTF-8"?>
<svg version="1.1" xmlns="http://www.w3.org/2000/svg" width="2000" height="2000">
<path d="M0 0 C19 0 19 0 22.69921875 3.66796875 C23.50669068 5.42726322 24.27004108 7.20715647 25 9 C26.21086855 11.09397044 27.44868492 13.17249342 28.70703125 15.23828125 C29.72109677 16.9821226 30.73507998 18.72601426 31.7460022 20.47167969 C37.97637462 31.22556598 44.32963546 41.89663645 50.8125 52.5 C56.26515593 61.42318691 61.58729674 70.40555671 66.73095703 79.51098633 C71.64637135 88.19728189 76.79671664 96.73895675 81.9753418 105.27026367 C82.6963219 106.4873578 83.36736576 107.73473151 84 109 C88.57661796 102.41850952 92.61197083 95.59232755 96.54754639 88.61196899 C98.29848586 85.50762881 100.06135746 82.41008124 101.82421875 79.3125 C102.17780457 78.69087479 102.53139038 78.06924957 102.89569092 77.42878723 C107.68696467 69.01961712 112.63660289 60.70426047 117.58300781 52.38574219 C119.64822788 48.90860047 121.7003576 45.42384 123.75 41.9375 C124.12825928 41.29506348 124.50651855 40.65262695 124.89624023 39.99072266 C127.32200613 35.86716395 129.73751757 31.7377155 132.14736938 27.60484314 C133.68905891 24.96149799 135.23261756 22.31924623 136.77624512 19.67703247 C137.54530651 18.35942973 138.3134669 17.04130063 139.08068848 15.72262573 C140.16484169 13.85934452 141.25204756 11.99787487 142.33984375 10.13671875 C143.28911743 8.50802856 143.28911743 8.50802856 144.25756836 6.84643555 C146 4 146 4 149 0 C155.27 0 161.54 0 168 0 C168 52.14 168 104.28 168 158 C160.74 158 153.48 158 146 158 C145.67 121.37 145.34 84.74 145 47 C139.39 56.57 133.78 66.14 128 76 C120.625 88.3125 120.625 88.3125 116.98828125 94.3515625 C113.96673841 99.3768979 110.96875813 104.41576497 107.98046875 109.4609375 C107.55149292 110.18494247 107.12251709 110.90894745 106.68054199 111.65489197 C104.56622415 115.224108 102.45394518 118.7945118 100.34423828 122.36645508 C99.56939207 123.6753262 98.79449226 124.98416559 98.01953125 126.29296875 C97.67222458 126.88254364 97.32491791 127.47211853 96.96708679 128.07955933 C90.66282746 138.71426499 90.66282746 138.71426499 87.3359375 140.1484375 C83.75727921 140.42226623 81.38583134 140.24585033 78 139 C74.33882081 135.14934409 72.09920282 130.64841048 69.62207031 125.97607422 C67.72475758 122.49500225 65.71570348 119.09263149 63.6796875 115.69140625 C63.28904617 115.03873779 62.89840485 114.38606934 62.4959259 113.71362305 C61.68295772 112.35629822 60.86970506 110.99914373 60.05618286 109.64215088 C57.96940072 106.15269351 55.90165124 102.65199715 53.83203125 99.15234375 C49.57627224 91.96355104 45.29763743 84.78885838 41 77.625 C40.45061768 76.7079126 39.90123535 75.7908252 39.33520508 74.84594727 C33.94273804 65.86436155 28.46329026 56.93992952 23 48 C22.67 84.3 22.34 120.6 22 158 C14.74 158 7.48 158 0 158 C0 105.86 0 53.72 0 0 Z " fill="#1D398A" transform="translate(773,1054)"/>
<path d="M0 0 C19 0 19 0 23.5 3.625 C24.7043466 5.39155875 25.86751076 7.18653683 27 9 C28.25583143 10.61635719 29.5130714 12.2318352 30.79492188 13.82763672 C32.21900673 15.60175084 33.61678437 17.39430713 35.01171875 19.19140625 C38.11971385 23.17265404 41.30474757 27.08865982 44.5 31 C48.59918424 36.0194339 52.6439515 41.07391184 56.625 46.1875 C60.1520609 50.71355503 63.76968252 55.14004294 67.5 59.5 C71.71226715 64.42325492 75.75698554 69.4521055 79.73876953 74.56298828 C83.2334419 79.04242215 86.7873825 83.46969954 90.375 87.875 C90.91084717 88.53306641 91.44669434 89.19113281 91.9987793 89.86914062 C94.26796966 92.65345648 96.53945397 95.4358963 98.81103516 98.21826172 C100.60424607 100.41548233 102.39589856 102.61396699 104.1875 104.8125 C104.74034668 105.48845215 105.29319336 106.1644043 105.86279297 106.86083984 C106.37600098 107.49070801 106.88920898 108.12057617 107.41796875 108.76953125 C108.09508911 109.59868042 108.09508911 109.59868042 108.78588867 110.44458008 C109.92937215 111.90951739 110.96915333 113.45372999 112 115 C112.33 77.05 112.66 39.1 113 0 C120.59 0 128.18 0 136 0 C136 52.14 136 104.28 136 158 C116 158 116 158 111.265625 154.6328125 C109.67163086 152.46459961 109.67163086 152.46459961 108.25 150.125 C107.6938501 149.34068604 107.1377002 148.55637207 106.56469727 147.74829102 C105.47500619 146.20749555 104.4098174 144.64898894 103.37353516 143.07177734 C101.70943307 140.56172219 99.86185862 138.25230819 97.9375 135.9375 C97.33421875 135.17824219 96.7309375 134.41898438 96.109375 133.63671875 C93.32474316 130.15592895 90.50425028 126.70481217 87.6875 123.25 C83.59422803 118.22649233 79.54618008 113.17330246 75.5625 108.0625 C71.46056388 102.80248554 67.25422134 97.63749844 63 92.5 C58.28935958 86.81131908 53.66036131 81.07222146 49.11987305 75.24707031 C45.06965673 70.0607724 40.92718402 64.95223492 36.76538086 59.85522461 C32.473832 54.59764844 28.24050015 49.30062519 24 44 C23.67 81.62 23.34 119.24 23 158 C15.41 158 7.82 158 0 158 C0 105.86 0 53.72 0 0 Z " fill="#1D398A" transform="translate(1300,1054)"/>
<path d="M0 0 C36.96 0 73.92 0 112 0 C112 6.93 112 13.86 112 21 C82.96 21 53.92 21 24 21 C24 36.51 24 52.02 24 68 C50.07 68 76.14 68 103 68 C103 74.6 103 81.2 103 88 C76.93 88 50.86 88 24 88 C24 104.5 24 121 24 138 C30.55746094 137.98839844 37.11492187 137.97679687 43.87109375 137.96484375 C48.01367286 137.95973708 52.15624811 137.95492331 56.29882812 137.95117188 C62.88094891 137.94518311 69.46305584 137.93808193 76.04516602 137.92456055 C81.3489656 137.91373275 86.65275035 137.9077234 91.95656013 137.90512276 C93.98485612 137.90326831 96.01315126 137.89964733 98.04144096 137.89426994 C100.87196514 137.88706094 103.70242718 137.886009 106.53295898 137.88647461 C107.38028091 137.88287933 108.22760284 137.87928406 109.1006012 137.87557983 C114.88594784 137.88594784 114.88594784 137.88594784 116 139 C116 145.27 116 151.54 116 158 C77.72 158 39.44 158 0 158 C0 105.86 0 53.72 0 0 Z " fill="#1D3989" transform="translate(1149,1054)"/>
<path d="M0 0 C7.59 0 15.18 0 23 0 C23.33 28.38 23.66 56.76 24 86 C27.96 81.71 31.92 77.42 36 73 C38.33462379 70.60571675 40.66893287 68.23117313 43.05078125 65.88671875 C43.63868942 65.3025972 44.2265976 64.71847565 44.83232117 64.11665344 C46.6565156 62.30435992 48.4840238 60.49547266 50.3125 58.6875 C52.74913999 56.27778775 55.18218793 53.86452535 57.61328125 51.44921875 C58.15197342 50.91882492 58.69066559 50.38843109 59.24568176 49.84196472 C62.10380993 47.00194642 64.82220188 44.09171189 67.45727539 41.04272461 C70.8333502 37.14202118 74.39866768 33.488421 78.0703125 29.8671875 C78.71443085 29.22685577 79.35854919 28.58652405 80.02218628 27.92678833 C82.05400904 25.9070405 84.08906875 23.89060581 86.125 21.875 C88.81805958 19.20868634 91.50768132 16.53897165 94.1953125 13.8671875 C94.80376007 13.26703827 95.41220764 12.66688904 96.03909302 12.04855347 C98.7654933 9.33774375 101.37088632 6.61546538 103.80029297 3.63330078 C106 1 106 1 108 0 C109.9593604 -0.08510205 111.92162794 -0.10717656 113.8828125 -0.09765625 C115.04941406 -0.09443359 116.21601562 -0.09121094 117.41796875 -0.08789062 C118.64128906 -0.07951172 119.86460938 -0.07113281 121.125 -0.0625 C122.35605469 -0.05798828 123.58710937 -0.05347656 124.85546875 -0.04882812 C127.90369392 -0.0370133 130.95182314 -0.02054028 134 0 C132.28974534 3.66434951 130.24002076 5.9345589 127.3125 8.75 C124.29158484 11.7062736 121.3573483 14.65015436 118.625 17.875 C115.58569255 21.43286227 112.3263598 24.71441691 109 28 C105.71531689 31.24451578 102.49265974 34.47922384 99.5 38 C96.02590506 42.08717051 92.22198621 45.80528997 88.40893555 49.5715332 C85.01888026 52.93601523 81.82976766 56.40358382 78.734375 60.04296875 C75.34112633 63.87183718 71.65329705 67.42126003 68 71 C72.02046304 76.54171932 76.31521818 81.79664326 80.75463867 87.00415039 C85.99064182 93.14806959 91.08026764 99.40809904 96.171875 105.671875 C100.25276429 110.67892357 104.3780369 115.64205438 108.5625 120.5625 C112.42757844 125.10738612 116.19235202 129.71528203 119.89453125 134.39453125 C122.43693827 137.54070097 125.06000865 140.61239438 127.6875 143.6875 C138 155.78347035 138 155.78347035 138 158 C112.04080399 160.42335539 112.04080399 160.42335539 105.890625 155.375 C103.25618359 152.51949242 101.2187396 149.31021019 99.2421875 145.97558594 C97.1747302 142.68748365 94.58054345 139.88992964 92 137 C90.99606049 135.8342975 89.99475262 134.66632335 88.99609375 133.49609375 C88.50093262 132.91843262 88.00577148 132.34077148 87.49560547 131.74560547 C86.00806221 130.00940986 84.52148492 128.27239171 83.03515625 126.53515625 C82.04433851 125.37754624 81.05345299 124.21999424 80.0625 123.0625 C79.57225342 122.48975342 79.08200684 121.91700684 78.5769043 121.3269043 C75.39636056 117.6158382 72.19603768 113.92260838 68.98681641 110.23632812 C63.19977787 103.58688752 57.52659793 96.86897573 52 90 C50.60394531 91.22783203 50.60394531 91.22783203 49.1796875 92.48046875 C47.00174322 94.36930052 44.81881274 96.12912477 42.46972656 97.80322266 C33.66109986 104.08852831 24.8284896 110.8188703 22.93798828 121.9921875 C21.54679619 133.94221048 22.2444743 146.0308824 23 158 C15.41 158 7.82 158 0 158 C0 105.86 0 53.72 0 0 Z " fill="#1D398A" transform="translate(988,1054)"/>
<path d="M0 0 C-2.05764921 6.45353615 -4.42383482 12.7361263 -7 19 C-10.60485266 18.42246199 -13.31401357 17.44961236 -16.5 15.6875 C-33.43912761 7.04304845 -52.74136911 4.76471462 -71.08203125 9.85546875 C-77.97506654 12.38739326 -83.03554942 15.56402696 -86.375 22.3125 C-88.68800769 28.18248591 -89.00696096 33.14741227 -86.625 39.125 C-81.28650087 48.6301326 -67.06776454 52.27723171 -57.28442383 55.05493164 C-54.06966496 55.8758834 -50.85130557 56.6763802 -47.62554932 57.45294189 C-9.48652405 66.69069158 -9.48652405 66.69069158 2 83 C7.56312146 92.73154487 7.6432868 105.71581981 4.9375 116.4375 C0.3994225 128.90661013 -9.14928047 137.17768962 -20.84375 142.71484375 C-44.25080224 152.24568556 -73.29630512 149.97214579 -96.2890625 140.60546875 C-104.65366334 137.05105097 -110.07071722 134.11513934 -116 127 C-113.36 121.39 -110.72 115.78 -108 110 C-104.23901633 111.50439347 -102.14681205 112.47799192 -99.0625 114.75 C-81.55971178 126.60205362 -60.79228947 129.22860632 -40.203125 126.49609375 C-34.64736936 125.26226477 -30.15498495 123.30071709 -25.5234375 119.98828125 C-24 119 -24 119 -22 119 C-21.71125 118.236875 -21.4225 117.47375 -21.125 116.6875 C-20 114 -20 114 -18 111 C-17.29719501 104.67475506 -17.01669761 98.22808439 -21 93 C-30.88639045 82.95791836 -47.33881848 80.71636605 -60.54370117 77.52050781 C-77.16747453 73.4738369 -96.07597425 68.41981199 -106.60546875 53.765625 C-112.35984466 43.97812344 -113.40369438 33.3749833 -111.53515625 22.2265625 C-108.35051119 10.27943253 -101.28770279 1.38318356 -90.765625 -4.9453125 C-63.09043926 -19.64391115 -26.29746081 -16.50896151 0 0 Z " fill="#1D398A" transform="translate(665,1066)"/>
<path d="M0 0 C1.1816272 -0.00696899 2.36325439 -0.01393799 3.58068848 -0.02111816 C7.42622401 -0.03859159 11.27161378 -0.04485036 15.1171875 -0.046875 C17.08350128 -0.04838562 17.08350128 -0.04838562 19.08953857 -0.04992676 C39.51624129 -0.03930299 59.65624086 0.61763731 79.94586182 2.96881104 C82.07676307 3.2128093 84.2087404 3.44439131 86.34130859 3.67333984 C90.66520628 4.13950296 94.9853281 4.63429747 99.3046875 5.140625 C100.56812988 5.2859668 101.83157227 5.43130859 103.13330078 5.58105469 C117.27175037 7.36557414 130.57118202 11.53292011 143.9921875 16.203125 C145.01049652 16.55528076 145.01049652 16.55528076 146.04937744 16.91455078 C166.35908797 23.94974463 186.36548241 31.7510407 206.1796875 40.078125 C207.19981934 40.50609375 208.21995117 40.9340625 209.27099609 41.375 C216.32111096 44.37931694 223.17266931 47.70860226 229.9921875 51.203125 C229.9921875 51.533125 229.9921875 51.863125 229.9921875 52.203125 C229.12696976 52.14352097 228.26175201 52.08391693 227.37031555 52.02250671 C200.68277501 50.24403126 174.08882061 49.92111997 147.34857178 50.00750732 C143.09716203 50.01839809 138.84578354 50.01793153 134.59436226 50.01749325 C114.81315343 50.01802215 95.07197802 50.05538194 75.31362915 51.09182739 C68.95930181 51.39647491 62.60297153 51.46724175 56.2421875 51.515625 C54.92476562 51.54462891 53.60734375 51.57363281 52.25 51.60351562 C41.06526476 51.6757828 31.20947251 50.0892319 22.7421875 42.390625 C22.21463867 41.92124512 21.68708984 41.45186523 21.14355469 40.96826172 C18.10825801 38.24213194 15.16415784 35.41988173 12.2109375 32.60546875 C10.88826734 31.34609522 9.56534698 30.08698442 8.2421875 28.828125 C7.5836377 28.1990625 6.92508789 27.57 6.24658203 26.921875 C-0.56304301 20.50741482 -7.92986314 14.90235066 -15.47412109 9.38549805 C-17.0078125 8.203125 -17.0078125 8.203125 -19.0078125 6.203125 C-18.6328125 3.578125 -18.6328125 3.578125 -18.0078125 1.203125 C-12.03513391 -0.09071768 -6.08003774 0.02376292 0 0 Z " fill="#1D3989" transform="translate(982.0078125,738.796875)"/>
<path d="M0 0 C7.2254371 -0.06428325 14.44922384 -0.05754474 21.67480469 -0.01660156 C24.73811271 -0.00115631 27.80093371 -0.00364718 30.86425781 -0.01464844 C35.14206538 -0.02773773 39.41842687 -0.00265195 43.69598389 0.04373169 C45.39291888 0.0562017 47.08998863 0.05650802 48.78692627 0.04440308 C62.36715426 -0.03935149 62.36715426 -0.03935149 66.43554688 2.55029297 C68.57117788 4.95318935 70 6.7273513 70 10 C76.79325287 13.53249149 83.02755451 15.90546315 90.68139648 16.37304688 C91.58639893 16.42983109 92.49140137 16.4866153 93.42382812 16.54512024 C94.88272461 16.63106697 94.88272461 16.63106697 96.37109375 16.71875 C97.39211182 16.78132492 98.41312988 16.84389984 99.46508789 16.90837097 C102.78896811 17.11018652 106.11316237 17.3058718 109.4375 17.5 C110.57478546 17.56692047 111.71207092 17.63384094 112.88381958 17.70278931 C130.58214884 18.73913228 148.26970794 19.75239184 166 20 C166.78252136 20.01095703 167.56504272 20.02191406 168.37127686 20.03320312 C229.91337172 22.95740875 229.91337172 22.95740875 288.19140625 8.37890625 C291 7 291 7 294 7 C296.42771689 12.66467274 297.70845116 16.82635422 297 23 C293.73228953 28.99080254 288.03614003 30.99932463 281.87109375 33.03125 C259.81768955 39.20526772 236.00200772 39.73782444 213.25479126 40.88571167 C211.69326468 40.96486058 210.13188958 41.04703423 208.57064819 41.13162231 C188.80495634 42.17984329 169.0384288 42.18753178 149.25073242 42.18530273 C145.48896404 42.18522215 141.72731922 42.19207255 137.96557617 42.20581055 C117.45242647 42.27944298 96.99185521 42.08288717 76.5 41.08203125 C75.65837877 41.04094931 74.81675755 40.99986736 73.94963264 40.95754051 C52.43026253 39.88185468 30.88491788 38.39742914 9.47265625 35.96875 C8.36971474 35.84699402 8.36971474 35.84699402 7.24449158 35.72277832 C2.11924464 35.11924464 2.11924464 35.11924464 1 34 C0.84011509 31.48119483 0.74065775 28.98657734 0.68359375 26.46484375 C0.66281265 25.71159317 0.64203156 24.95834259 0.62062073 24.18226624 C0.55504575 21.7674401 0.49620379 19.35250202 0.4375 16.9375 C0.3943223 15.30402471 0.35070827 13.6705609 0.30664062 12.03710938 C0.19935638 8.02485536 0.09811179 4.01248836 0 0 Z " fill="#1D3989" transform="translate(1146,927)"/>
<path d="M0 0 C10.22157882 8.75947154 17.93344186 19.78700941 24.875 31.25 C24.875 31.91 24.875 32.57 24.875 33.25 C18.87094661 34.08587448 12.94109849 34.50243982 6.88574219 34.73071289 C5.91873886 34.7698732 4.95173553 34.80903351 3.95542908 34.84938049 C0.77770152 34.97716823 -2.40019409 35.10003836 -5.578125 35.22265625 C-7.80239761 35.31067835 -10.02666099 35.39893385 -12.25091553 35.4874115 C-16.90759243 35.67190316 -21.56435354 35.85404173 -26.22119141 36.03442383 C-32.16349761 36.26471902 -38.10558792 36.50011722 -44.0476265 36.73720646 C-48.64087952 36.92003123 -53.23422326 37.10048674 -57.82759857 37.28021049 C-60.01708223 37.3660879 -62.20654109 37.45260016 -64.39597321 37.53978157 C-86.3133753 38.40944014 -86.3133753 38.40944014 -96.125 38.25 C-96.67027344 37.23421875 -97.21554687 36.2184375 -97.77734375 35.171875 C-103.92107782 23.8900203 -110.3912778 13.59970244 -119.81640625 4.71875 C-121.60314055 2.71334075 -122.04452159 0.90578764 -122.125 -1.75 C-117.33761338 -5.69147915 -111.81466424 -7.18650755 -106 -9.125 C-104.81035645 -9.52203125 -103.62071289 -9.9190625 -102.39501953 -10.328125 C-65.91226298 -22.09024643 -31.27331913 -24.89261674 0 0 Z " fill="#1D3989" transform="translate(966.125,765.75)"/>
<path d="M0 0 C7.50667905 -0.13009665 14.24603824 0.52217524 21.51953125 2.35595703 C22.4623999 2.583396 23.40526855 2.81083496 24.37670898 3.04516602 C46.33730122 8.44971525 46.33730122 8.44971525 50.58203125 14.91455078 C53.69842728 20.53380237 55.70677538 26.58491207 57.70703125 32.66845703 C57.97378662 33.45937744 58.24054199 34.25029785 58.51538086 35.06518555 C60.18348681 40.36132593 61.22938649 45.54611651 60.39453125 51.10595703 C59.73453125 52.09595703 59.07453125 53.08595703 58.39453125 54.10595703 C51.46874759 54.90508591 44.25166113 54.18231908 37.29356384 53.74746704 C29.92990466 53.28851837 22.58013325 53.00801279 15.203125 52.89501953 C13.92563889 52.87356873 13.92563889 52.87356873 12.62234497 52.85168457 C9.13979463 52.79438161 5.65742034 52.73914647 2.17456055 52.70458984 C-0.4204587 52.67684842 -3.01467254 52.63108201 -5.609375 52.58251953 C-6.38140762 52.57926666 -7.15344025 52.57601379 -7.9488678 52.57266235 C-16.04336005 52.39195107 -23.4318041 50.34110447 -29.43359375 44.71142578 C-34.14174622 39.0633364 -37.72096804 32.60804638 -41.37060547 26.24560547 C-42.43325658 24.40434918 -43.53344993 22.58485161 -44.640625 20.77001953 C-47.86451713 15.32827254 -49.74089166 11.46432531 -48.60546875 5.10595703 C-45.54058231 2.02943235 -42.97284216 1.67090479 -38.7265625 1.45361328 C-36.99575439 1.35717529 -36.99575439 1.35717529 -35.22998047 1.25878906 C-34.0338916 1.20835449 -32.83780273 1.15791992 -31.60546875 1.10595703 C-29.89447998 1.02450439 -29.89447998 1.02450439 -28.14892578 0.94140625 C-24.65574134 0.7874626 -21.16253749 0.66155603 -17.66796875 0.54345703 C-15.92870117 0.47868164 -15.92870117 0.47868164 -14.15429688 0.41259766 C-9.43683861 0.24739484 -4.71825485 0.13865944 0 0 Z " fill="#1D3989" transform="translate(1351.60546875,822.89404296875)"/>
<path d="M0 0 C-3.97761696 1.32587232 -5.47444437 0.28058992 -9.375 -1.1875 C-35.70596902 -10.274529 -75.3354873 -13.93138345 -102 -4 C-101.38687031 0.59133045 -99.4946512 4.31217312 -97.359375 8.35546875 C-96.99531555 9.05714676 -96.6312561 9.75882477 -96.25616455 10.48176575 C-95.09329333 12.72011431 -93.92193088 14.95388369 -92.75 17.1875 C-91.97727278 18.66961348 -91.20513164 20.15203268 -90.43359375 21.63476562 C-89.8695282 22.71831833 -89.8695282 22.71831833 -89.29406738 23.82376099 C-88.55121681 25.25142313 -87.80861872 26.67921668 -87.06628418 28.10714722 C-86.71247681 28.78770172 -86.35866943 29.46825623 -85.99414062 30.16943359 C-85.65519775 30.82167908 -85.31625488 31.47392456 -84.96704102 32.14593506 C-84.08503155 33.83697276 -83.19434055 35.52347514 -82.30273438 37.20947266 C-81.83673828 38.10585449 -81.37074219 39.00223633 -80.890625 39.92578125 C-80.49391602 40.67899658 -80.09720703 41.43221191 -79.68847656 42.20825195 C-79.34768066 43.09516724 -79.34768066 43.09516724 -79 44 C-79.33 44.66 -79.66 45.32 -80 46 C-80.73863281 44.98421875 -81.47726562 43.9684375 -82.23828125 42.921875 C-95.56480674 24.76644902 -110.09790485 10.37431868 -129 -2 C-129.90105469 -2.60473145 -129.90105469 -2.60473145 -130.8203125 -3.22167969 C-143.85387062 -11.70985881 -159.54465127 -13.19839612 -174.58428955 -15.60742188 C-177.93808955 -16.15244933 -181.28665812 -16.72688413 -184.63581848 -17.29962158 C-233.89995061 -25.69912552 -283.06570796 -29.93378736 -333 -31 C-333.33 -31.66 -333.66 -32.32 -334 -33 C-322.75707129 -33.39859603 -311.51391779 -33.79010842 -300.27045822 -34.17345428 C-295.04525733 -34.35181169 -289.82015056 -34.53228572 -284.59521484 -34.71826172 C-81.5875155 -41.92960366 -81.5875155 -41.92960366 0 0 Z " fill="#1D3989" transform="translate(1397,829)"/>
<path d="M0 0 C7.92 0 15.84 0 24 0 C24 52.14 24 104.28 24 158 C16.08 158 8.16 158 0 158 C0 105.86 0 53.72 0 0 Z " fill="#1D3989" transform="translate(703,1054)"/>
<path d="M0 0 C15.01251138 -0.56005224 26.88246832 0.09403303 39 10 C51.5574529 21.7167866 58.03338578 39.2285372 60 56 C60.14566406 57.21558594 60.29132813 58.43117188 60.44140625 59.68359375 C62.56991828 81.18442403 58.74202669 106.68446532 45 124 C36.12752791 134.35419278 26.32528703 139.61636434 12.75 140.75 C8.60212782 141.02652481 5.04193648 141.00288649 1 140 C1 139.67 1 139.34 1 139 C1.73863281 138.85304688 2.47726562 138.70609375 3.23828125 138.5546875 C15.21426592 135.90688403 24.97753782 131.38491229 32 121 C45.98198576 96.41691848 49.29219663 63.31674373 41.96484375 36.1640625 C38.42258143 24.35211016 33.45156791 14.12157309 23 7 C15.75407951 3.34440047 7.98150739 2.05862925 0 1 C0 0.67 0 0.34 0 0 Z " fill="#1D3989" transform="translate(1068,851)"/>
<path d="M0 0 C8.88061009 4.10180645 14.44135409 14.3793394 19.5625 22.375 C20.22511841 23.39146606 20.22511841 23.39146606 20.90112305 24.4284668 C23.16614661 28.06268337 24.60770047 30.56635434 24 35 C20.59511518 36.70244241 16.70229194 36.20212686 12.953125 36.24609375 C11.06648172 36.27747845 9.17984452 36.30923072 7.29321289 36.34130859 C6.30499542 36.35667664 5.31677795 36.37204468 4.2986145 36.38787842 C-26.65560383 36.54333498 -26.65560383 36.54333498 -57 42 C-51.85493201 26.30318239 -34.50004487 15.33530734 -20.78613281 7.97167969 C-18.98327794 6.99090298 -17.20585618 5.9735179 -15.4296875 4.9453125 C-13.73199219 3.98238281 -13.73199219 3.98238281 -12 3 C-10.989375 2.4225 -9.97875 1.845 -8.9375 1.25 C-5.60810421 -0.16676417 -3.5815939 -0.45722475 0 0 Z " fill="#1D3989" transform="translate(836,769)"/>
<path d="M0 0 C-6.89491263 12.59354703 -22.9460916 19.33574986 -36.125 23.4375 C-54.46387134 28.08445382 -71.37343907 25.50102748 -87.90234375 16.40234375 C-94.0464512 12.70239427 -99.33830629 8.47648831 -104 3 C-104 2.67 -104 2.34 -104 2 C-103.11511398 1.98969254 -102.23022797 1.97938507 -101.31852722 1.96876526 C-92.89204318 1.8699184 -84.46561477 1.76729791 -76.03922558 1.66066074 C-71.70935848 1.60599279 -67.37948437 1.5526768 -63.04956055 1.50268555 C-58.85437222 1.45419621 -54.65924672 1.40184901 -50.46413612 1.34705925 C-48.88056358 1.32701055 -47.2969741 1.30824684 -45.71336937 1.29092598 C-36.26798395 1.18660081 -26.85576539 0.89952926 -17.42515087 0.34507847 C-11.61230464 0.00576331 -5.82323503 -0.11777329 0 0 Z " fill="#1D3989" transform="translate(1385,974)"/>
<path d="M0 0 C7.82755907 -0.17380598 15.49198679 0.51046197 23.27539062 1.28173828 C24.70501554 1.42016879 26.13467881 1.55820368 27.56437683 1.69587708 C30.64184855 1.99300233 33.71904789 2.29276401 36.79606628 2.59454727 C41.74788651 3.08002281 46.7003659 3.55853405 51.6529541 4.03610229 C64.01355291 5.22907438 76.37329236 6.43086709 88.73284912 7.63458252 C126.93887938 11.35525844 165.14401438 15.03403563 203.40266609 18.17690802 C205.66380903 18.36267379 207.92488501 18.54923919 210.18595886 18.73584366 C225.35246542 19.98424329 240.52286074 21.14182563 255.70898438 22.12548828 C257.5596413 22.24561185 257.5596413 22.24561185 259.44768524 22.36816216 C270.95744255 23.0943087 282.47480657 23.59549186 294 24 C294 24.33 294 24.66 294 25 C277.36098019 25.02347398 260.72196585 25.04104981 244.08293343 25.05181217 C236.35525073 25.05694457 228.62757839 25.06392822 220.89990234 25.07543945 C214.15589384 25.08548052 207.41189285 25.09187559 200.66787708 25.09408849 C197.10477891 25.09537978 193.5417022 25.09836332 189.97861099 25.10573006 C181.31838524 25.12265249 172.65972165 25.10095774 164 25 C162.75237129 24.98793581 162.75237129 24.98793581 161.47953796 24.9756279 C146.2102531 24.74519296 131.14430041 21.90491457 116.10242558 19.4890976 C112.2466177 18.87181315 108.38917989 18.26487959 104.53192139 17.65673828 C97.2499058 16.50707116 89.9693725 15.34828872 82.68934512 14.18610573 C74.41387579 12.86549297 66.13673516 11.55550576 57.85946512 10.24623489 C44.98759969 8.20992053 32.11664324 6.16794144 19.24707031 4.1171875 C17.98781738 3.91663757 16.72856445 3.71608765 15.43115234 3.50946045 C14.27093567 3.32441956 13.11071899 3.13937866 11.91534424 2.94873047 C10.91184559 2.78871552 9.90834694 2.62870056 8.87443924 2.46383667 C5.91451952 1.98620636 2.956986 1.49544198 0 1 C0 0.67 0 0.34 0 0 Z " fill="#1D3989" transform="translate(702,944)"/>
<path d="M0 0 C-4.14702578 1.2588135 -8.29109771 2.30895893 -12.52734375 3.2265625 C-46.50423133 10.59430575 -76.60783617 22.35444396 -104 44 C-104.91136719 44.71800781 -105.82273437 45.43601562 -106.76171875 46.17578125 C-112.21466794 50.55525399 -117.39775085 55.15897604 -122.52172852 59.91137695 C-127.49850739 64.506006 -132.69085095 68.79385976 -138 73 C-138.97195313 73.77859375 -139.94390625 74.5571875 -140.9453125 75.359375 C-154.77792579 86.24519097 -169.47294153 95.7244082 -185 104 C-185.87849609 104.46937988 -186.75699219 104.93875977 -187.66210938 105.42236328 C-231.17219569 128.58456015 -276.75535435 144.81438814 -324.02459717 158.42999268 C-325.82526977 158.94958116 -327.62393095 159.47612757 -329.42236328 160.00341797 C-330.38770996 160.27943848 -331.35305664 160.55545898 -332.34765625 160.83984375 C-333.14308838 161.06921631 -333.93852051 161.29858887 -334.75805664 161.53491211 C-337.22421892 162.04651389 -339.48817178 162.08244148 -342 162 C-338.45584928 160.0346782 -334.72662722 158.92081999 -330.859375 157.78515625 C-329.39761453 157.34795889 -327.93594877 156.91044477 -326.47436523 156.47265625 C-325.70502655 156.24336426 -324.93568787 156.01407227 -324.14303589 155.77783203 C-262.49474231 137.34977615 -200.21880957 113.8382679 -149 74 C-148.44393066 73.56848633 -147.88786133 73.13697266 -147.31494141 72.69238281 C-138.83683144 66.05971761 -130.92257987 58.739003 -123.171875 51.27734375 C-99.08193413 28.40506383 -35.28063504 -11.90397955 0 0 Z " fill="#1D398A" transform="translate(899,735)"/>
<path d="M0 0 C10.72333455 3.39193895 20.76540894 11.22511464 26.1875 21.125 C28.15879857 25.69124433 28.66877272 29.06780121 28 34 C26.32338748 37.85620881 24.86391973 39.46520261 21 41 C11.71110633 42.17132677 3.89989667 40.63493819 -3.6328125 35.046875 C-11.29707558 28.50365339 -17.36450168 21.56614924 -18.953125 11.3671875 C-19.02982738 7.49371717 -17.9998214 5.31004922 -16 2 C-11.03281534 -1.31145644 -5.79121714 -0.70235269 0 0 Z " fill="#1D3989" transform="translate(1252,824)"/>
<path d="M0 0 C2.89993728 2.75398857 5.20325071 5.56232553 7.4375 8.875 C14.24197195 18.69246907 19.95044925 24.51007665 32 27 C34.66424169 27.30354415 37.27223396 27.54521229 39.94311523 27.70654297 C40.715861 27.75898289 41.48860676 27.81142281 42.28476906 27.86545181 C44.89643944 28.04025922 47.50867912 28.20390508 50.12109375 28.3671875 C52.03806339 28.49214704 53.95500899 28.61747571 55.87193298 28.74313354 C85.15080031 30.64120438 114.44630847 32.29276913 143.73734283 33.99023438 C154.54702206 34.61676113 165.35663614 35.24438736 176.16603941 35.87565887 C180.47314588 36.127083 184.78034858 36.37676182 189.08764088 36.62498116 C191.11004643 36.7417933 193.13240222 36.85942725 195.15473938 36.97741699 C197.59955071 37.12004363 200.04443549 37.26142009 202.4894104 37.4012146 C209.3409958 37.80356197 216.16915599 38.33158878 223 39 C223 39.33 223 39.66 223 40 C190.31944326 40.18351933 157.65090555 39.69706446 124.97590387 39.16577756 C119.97721759 39.08473416 114.9784925 39.00653601 109.97973633 38.92993164 C92.74414313 38.66549232 75.50919337 38.37879102 58.27451324 38.05924225 C55.23194182 38.00419627 52.18933815 37.95319805 49.14666748 37.9039917 C45.10876725 37.83798668 41.0714027 37.75913248 37.03404045 37.66589165 C35.05961932 37.62314563 33.08492096 37.59383426 31.11024475 37.56520081 C23.98385995 37.37716146 18.6864736 36.91446929 12.94116211 32.37231445 C8.07637227 26.83851403 5.77762891 21.16007144 3.5625 14.1875 C3.0375293 12.63385742 3.0375293 12.63385742 2.50195312 11.04882812 C0 3.51359161 0 3.51359161 0 0 Z " fill="#1D3989" transform="translate(784,876)"/>
<path d="M0 0 C2.30150638 0.95726371 4.41460297 2.06260085 6.58203125 3.29296875 C7.42894531 3.74027344 8.27585937 4.18757812 9.1484375 4.6484375 C15.84402811 8.37042751 20.67722041 12.31771135 24.01953125 19.29296875 C24.73013133 23.08283583 24.6636111 25.57503803 23.58203125 29.29296875 C20.27068371 33.25639703 16.6223262 34.98539027 11.57421875 35.49609375 C1.69036436 35.71492447 -6.87230137 32.7421338 -14.41796875 26.29296875 C-19.04697003 21.14853264 -23.21625696 15.61172504 -22.97265625 8.3984375 C-22.01343637 4.757455 -19.88177917 2.84506637 -16.9609375 0.5859375 C-11.52211429 -2.17942423 -5.74051117 -1.67856627 0 0 Z " fill="#1D3989" transform="translate(1202.41796875,824.70703125)"/>
<path d="M0 0 C0.33 0 0.66 0 1 0 C1.94252553 4.04179098 2.19295494 7.90634444 2.31640625 12.05078125 C2.33718735 12.70958786 2.35796844 13.36839447 2.37937927 14.04716492 C2.44435489 16.13551185 2.50351575 18.22397612 2.5625 20.3125 C2.60573479 21.7350378 2.6493506 23.15756406 2.69335938 24.58007812 C2.79998216 28.05326297 2.90139348 31.52657726 3 35 C5.1783456 36.0891728 6.7203964 36.28032356 9.1328125 36.53515625 C9.93847656 36.62216797 10.74414062 36.70917969 11.57421875 36.79882812 C12.41597656 36.88583984 13.25773437 36.97285156 14.125 37.0625 C14.97449219 37.15337891 15.82398438 37.24425781 16.69921875 37.33789062 C18.7991145 37.5620368 20.89951293 37.78146448 23 38 C18.00932525 46.86036718 8.90595322 55.91519309 -1 59 C-4.44621365 59.5317037 -7.90082168 59.83774851 -11.375 60.125 C-12.35146484 60.20919189 -13.32792969 60.29338379 -14.33398438 60.38012695 C-24.24460562 61.18402103 -34.17347304 61.8498733 -44 60 C-41.79995924 57.79995924 -40.46596298 57.36914572 -37.5625 56.375 C-21.72058797 50.17996658 -12.44783954 37.92765374 -5.78955078 22.90234375 C-4.04562401 18.70052638 -2.90596913 14.44810405 -2 10 C-1.79761719 9.04480469 -1.59523438 8.08960938 -1.38671875 7.10546875 C-0.90052474 4.74064755 -0.43775603 2.3741827 0 0 Z " fill="#1D3989" transform="translate(1132,935)"/>
<path d="M0 0 C5.24545075 0.2155241 10.49191354 0.38950327 15.73910522 0.55654907 C16.66282331 0.58596934 17.58654139 0.61538961 18.53825092 0.64570141 C20.43768997 0.70603699 22.33713236 0.76626705 24.23657799 0.82639503 C29.11361201 0.98198709 33.99043964 1.14376981 38.86727905 1.30532837 C39.84831195 1.33774785 40.82934484 1.37016733 41.84010601 1.40356922 C46.81084702 1.56784771 51.78157286 1.73257878 56.75228882 1.89761353 C82.49371392 2.75170293 108.23525929 3.54259715 133.98251343 4.19985962 C131.38662888 6.79574417 130.2290804 6.49782862 126.60813904 6.60925293 C124.91258078 6.66635531 124.91258078 6.66635531 123.18276882 6.72461128 C121.94371823 6.75495398 120.70466764 6.78529667 119.42807007 6.81655884 C118.13249963 6.85415754 116.83692919 6.89175625 115.50209904 6.93049431 C101.03354081 7.32848726 86.56123068 7.3471388 72.08831286 7.33418512 C68.2458406 7.33158358 64.40337023 7.33401998 60.56089783 7.33557129 C54.11948203 7.33737073 47.67807784 7.33504591 41.23666382 7.33023071 C33.87541188 7.32479014 26.51418767 7.32655842 19.1529364 7.33205712 C12.73837663 7.33664992 6.32382503 7.33720923 -0.09073585 7.33461845 C-3.88063536 7.33308933 -7.67052202 7.3327659 -11.46042061 7.33615494 C-30.33466191 7.35080376 -49.15931083 7.02625413 -68.01748657 6.19985962 C-63.0556951 2.89199864 -57.09263876 2.70322234 -51.27798462 1.8578186 C-49.78277879 1.63546272 -48.28933132 1.4007514 -46.79849243 1.15078735 C-31.21413213 -1.46170199 -15.70803773 -0.65485655 0 0 Z " fill="#1D3989" transform="translate(858.0174865722656,922.8001403808594)"/>
<path d="M0 0 C1.98 0 3.96 0 6 0 C7.21107226 2.39448043 8.41884592 4.7905429 9.625 7.1875 C9.95628906 7.84169922 10.28757812 8.49589844 10.62890625 9.16992188 C13.91244386 15.70602032 16.95847765 22.34851234 20 29 C20.58285767 27.73555054 20.58285767 27.73555054 21.17749023 26.44555664 C22.61632364 23.32689977 24.0571182 20.20916504 25.49926758 17.09204102 C26.12375879 15.74117048 26.74745946 14.38993421 27.37036133 13.03833008 C28.26437517 11.09881078 29.16119745 9.16061239 30.05859375 7.22265625 C30.86768188 5.47094116 30.86768188 5.47094116 31.69311523 3.68383789 C33 1 33 1 34 0 C35.66617115 -0.04063832 37.33388095 -0.042721 39 0 C44.3837244 10.51574221 49.37419805 21.12936543 54 32 C51.1171875 32.14453125 51.1171875 32.14453125 48 32 C45.68858396 29.14925356 45 27.6860549 45 24 C35.45964402 23.43302629 35.45964402 23.43302629 27.046875 26.625 C25.81888835 28.73500973 25.81888835 28.73500973 25 32 C21.37 32 17.74 32 14 32 C12.515 28.535 12.515 28.535 11 25 C5.72 24.67 0.44 24.34 -5 24 C-5.66 26.31 -6.32 28.62 -7 31 C-8 32 -8 32 -11.0625 32.0625 C-12.031875 32.041875 -13.00125 32.02125 -14 32 C-4.28699135 9.19872014 -4.28699135 9.19872014 0 0 Z M36 6 C35.16235732 7.95649397 34.33000941 9.91525556 33.5 11.875 C33.0359375 12.96554687 32.571875 14.05609375 32.09375 15.1796875 C30.87947544 17.80661929 30.87947544 17.80661929 31 20 C34.63 20 38.26 20 42 20 C39.68635915 12.93199136 39.68635915 12.93199136 37 6 C36.67 6 36.34 6 36 6 Z M3 7 C2.15930585 8.60032137 1.32768495 10.20541171 0.5 11.8125 C0.0359375 12.70582031 -0.428125 13.59914063 -0.90625 14.51953125 C-2.20173141 17.00568026 -2.20173141 17.00568026 -2 20 C1.63 20 5.26 20 9 20 C8.566875 18.5975 8.13375 17.195 7.6875 15.75 C7.44386719 14.96109375 7.20023438 14.1721875 6.94921875 13.359375 C5.94891677 10.87302768 4.69142391 9.0657166 3 7 Z " fill="#000000" transform="translate(1480,1239)"/>
<path d="M0 0 C1.65 0 3.3 0 5 0 C6.66918945 1.8359375 6.66918945 1.8359375 8.11328125 4.375 C8.9012207 5.72851562 8.9012207 5.72851562 9.70507812 7.109375 C10.23552734 8.06328125 10.76597656 9.0171875 11.3125 10 C11.86228516 10.95390625 12.41207031 11.9078125 12.97851562 12.890625 C14.3359647 15.25140601 15.67527618 17.62074919 17 20 C17.51949219 19.14277344 18.03898438 18.28554687 18.57421875 17.40234375 C20.69262755 13.91999307 22.84112193 10.45742112 25 7 C25.49628906 6.20078125 25.99257813 5.4015625 26.50390625 4.578125 C27.75 2.6875 27.75 2.6875 30 0 C31.32 0 32.64 0 34 0 C34.1700084 3.64568539 34.33538803 7.29156728 34.5 10.9375 C34.54769531 11.95908203 34.59539063 12.98066406 34.64453125 14.03320312 C34.91274694 20.02973966 35.05007274 25.99753012 35 32 C33.02 32 31.04 32 29 32 C28.67 26.06 28.34 20.12 28 14 C25.03 18.95 22.06 23.9 19 29 C15 28 15 28 13.71972656 26.50952148 C13.18557129 25.57474976 13.18557129 25.57474976 12.640625 24.62109375 C12.28516602 24.01450928 11.92970703 23.4079248 11.56347656 22.78295898 C11.1300293 22.00895752 10.69658203 21.23495605 10.25 20.4375 C8.14625 16.7559375 8.14625 16.7559375 6 13 C5.67 19.27 5.34 25.54 5 32 C3.35 32 1.7 32 0 32 C0 21.44 0 10.88 0 0 Z " fill="#000000" transform="translate(768,1239)"/>
<path d="M0 0 C5 1 5 1 6.45385742 2.53466797 C6.83388916 3.18064941 7.2139209 3.82663086 7.60546875 4.4921875 C8.03150391 5.19730469 8.45753906 5.90242188 8.89648438 6.62890625 C9.32251953 7.37011719 9.74855469 8.11132812 10.1875 8.875 C10.62513672 9.60847656 11.06277344 10.34195312 11.51367188 11.09765625 C12.32805677 12.46283888 13.13571317 13.83207448 13.93432617 15.20654297 C14.90318388 16.83706501 15.94792697 18.42189046 17 20 C17.33733154 19.39414063 17.67466309 18.78828125 18.0222168 18.1640625 C19.55805344 15.43135059 21.12217599 12.71591974 22.6875 10 C23.21794922 9.04609375 23.74839844 8.0921875 24.29492188 7.109375 C24.82021484 6.20703125 25.34550781 5.3046875 25.88671875 4.375 C26.36326904 3.53710938 26.83981934 2.69921875 27.33081055 1.8359375 C27.88164307 1.23007813 28.43247559 0.62421875 29 0 C30.65 0 32.3 0 34 0 C34 10.56 34 21.12 34 32 C32.35 32 30.7 32 29 32 C28.505 22.595 28.505 22.595 28 13 C25.20413754 17.88348938 25.20413754 17.88348938 22.43652344 22.78295898 C22.08106445 23.38954346 21.72560547 23.99612793 21.359375 24.62109375 C21.00327148 25.2442749 20.64716797 25.86745605 20.28027344 26.50952148 C19 28 19 28 15 29 C12.03 24.05 9.06 19.1 6 14 C5.67 19.94 5.34 25.88 5 32 C3.35 32 1.7 32 0 32 C0 21.44 0 10.88 0 0 Z " fill="#000000" transform="translate(899,1239)"/>
<path d="M0 0 C5 1 5 1 6.45385742 2.53466797 C6.83388916 3.18064941 7.2139209 3.82663086 7.60546875 4.4921875 C8.03150391 5.19730469 8.45753906 5.90242188 8.89648438 6.62890625 C9.32251953 7.37011719 9.74855469 8.11132812 10.1875 8.875 C10.62513672 9.60847656 11.06277344 10.34195312 11.51367188 11.09765625 C12.32805677 12.46283888 13.13571317 13.83207448 13.93432617 15.20654297 C14.90318388 16.83706501 15.94792697 18.42189046 17 20 C17.33733154 19.39414063 17.67466309 18.78828125 18.0222168 18.1640625 C19.55805344 15.43135059 21.12217599 12.71591974 22.6875 10 C23.21794922 9.04609375 23.74839844 8.0921875 24.29492188 7.109375 C24.82021484 6.20703125 25.34550781 5.3046875 25.88671875 4.375 C26.36326904 3.53710938 26.83981934 2.69921875 27.33081055 1.8359375 C27.88164307 1.23007813 28.43247559 0.62421875 29 0 C30.65 0 32.3 0 34 0 C34 10.56 34 21.12 34 32 C32.35 32 30.7 32 29 32 C28.505 22.595 28.505 22.595 28 13 C25.20413754 17.88348938 25.20413754 17.88348938 22.43652344 22.78295898 C22.08106445 23.38954346 21.72560547 23.99612793 21.359375 24.62109375 C21.00327148 25.2442749 20.64716797 25.86745605 20.28027344 26.50952148 C19 28 19 28 15 29 C12.03 24.05 9.06 19.1 6 14 C5.67 19.94 5.34 25.88 5 32 C3.35 32 1.7 32 0 32 C0 21.44 0 10.88 0 0 Z " fill="#000000" transform="translate(562,1239)"/>
<path d="M0 0 C5 0 5 0 6.71337891 1.40527344 C7.46240479 2.37255371 7.46240479 2.37255371 8.2265625 3.359375 C9.061875 4.41511719 9.061875 4.41511719 9.9140625 5.4921875 C10.76097656 6.60980469 10.76097656 6.60980469 11.625 7.75 C12.19734375 8.47960938 12.7696875 9.20921875 13.359375 9.9609375 C15.95043503 13.27508406 18.47584524 16.63446032 21 20 C21.33 13.4 21.66 6.8 22 0 C23.98 0 25.96 0 28 0 C28 10.56 28 21.12 28 32 C22 32 22 32 20.38842773 30.81005859 C19.99083252 30.26172363 19.5932373 29.71338867 19.18359375 29.1484375 C18.72919922 28.54386719 18.27480469 27.93929688 17.80664062 27.31640625 C17.12891602 26.35541016 17.12891602 26.35541016 16.4375 25.375 C15.52033355 24.13222 14.6023704 22.89002756 13.68359375 21.6484375 C13.28712646 21.09333496 12.89065918 20.53823242 12.48217773 19.96630859 C10.42148206 17.23251796 8.19164564 14.62997477 6 12 C5.67 18.6 5.34 25.2 5 32 C3.35 32 1.7 32 0 32 C0 21.44 0 10.88 0 0 Z " fill="#000000" transform="translate(1538,1239)"/>
<path d="M0 0 C5 0 5 0 7.68359375 2.5625 C8.6167042 3.69603674 9.53425837 4.84252204 10.4375 6 C11.11522461 6.82951172 11.11522461 6.82951172 11.80664062 7.67578125 C15.33087637 12.02483812 18.63999802 16.51999736 22 21 C22.33 14.07 22.66 7.14 23 0 C24.65 0 26.3 0 28 0 C28 10.56 28 21.12 28 32 C23 32 23 32 20.28125 29.40234375 C19.33901766 28.25972115 18.41234469 27.10412563 17.5 25.9375 C17.03980469 25.37611328 16.57960938 24.81472656 16.10546875 24.23632812 C12.88449649 20.26682006 9.98290694 16.17606972 7 12 C6.67 18.6 6.34 25.2 6 32 C4.02 32 2.04 32 0 32 C0 21.44 0 10.88 0 0 Z " fill="#000000" transform="translate(989,1239)"/>
<path d="M0 0 C5 0 5 0 7.68359375 2.5625 C8.6167042 3.69603674 9.53425837 4.84252204 10.4375 6 C11.11522461 6.82951172 11.11522461 6.82951172 11.80664062 7.67578125 C15.33087637 12.02483812 18.63999802 16.51999736 22 21 C22.33 14.07 22.66 7.14 23 0 C24.65 0 26.3 0 28 0 C28 10.56 28 21.12 28 32 C23 32 23 32 20.28125 29.40234375 C19.33901766 28.25972115 18.41234469 27.10412563 17.5 25.9375 C17.03980469 25.37611328 16.57960938 24.81472656 16.10546875 24.23632812 C12.88449649 20.26682006 9.98290694 16.17606972 7 12 C6.67 18.6 6.34 25.2 6 32 C4.02 32 2.04 32 0 32 C0 21.44 0 10.88 0 0 Z " fill="#000000" transform="translate(631,1239)"/>
<path d="M0 0 C3.01125 -0.0825 6.0225 -0.165 9.125 -0.25 C10.06230957 -0.28641602 10.99961914 -0.32283203 11.96533203 -0.36035156 C17.45925519 -0.43290177 20.73124588 0.19668636 25 4 C27.51885704 7.60346404 27.18064681 10.59566291 26.625 14.8046875 C25.67331899 18.14746704 23.66200247 19.88404932 21 22 C21.433125 22.55429688 21.86625 23.10859375 22.3125 23.6796875 C22.869375 24.40414063 23.42625 25.12859375 24 25.875 C24.556875 26.59429688 25.11375 27.31359375 25.6875 28.0546875 C27 30 27 30 27 32 C24.375 32.5 24.375 32.5 21 32 C19.58203125 30.25390625 19.58203125 30.25390625 18.1875 28.0625 C16.05432892 24.82196846 16.05432892 24.82196846 12.62109375 23.24609375 C9.85884982 22.93254536 9.85884982 22.93254536 6 23 C6 25.97 6 28.94 6 32 C4.02 32 2.04 32 0 32 C0 21.44 0 10.88 0 0 Z M6 5 C6 9.29 6 13.58 6 18 C13.17687826 18.63724741 13.17687826 18.63724741 19.6875 16.375 C21.39437743 13.28636465 21.59152429 11.47520521 21 8 C18.72923956 5.72923956 17.41993272 5.04398737 14.203125 4.70703125 C13.22859375 4.74183594 12.2540625 4.77664063 11.25 4.8125 C9.5175 4.874375 7.785 4.93625 6 5 Z " fill="#000000" transform="translate(1438,1239)"/>
<path d="M0 0 C2.97 -0.0825 5.94 -0.165 9 -0.25 C10.37865234 -0.30462402 10.37865234 -0.30462402 11.78515625 -0.36035156 C17.58375062 -0.43743408 22.27291109 0.47084311 27 4 C30.4225353 8.47212853 31.73090588 13.14349655 31.44921875 18.7578125 C30.4031652 23.97898414 27.84468648 27.75028184 23.46875 30.71484375 C18.7642033 32.45785711 14.58964056 32.32453087 9.625 32.1875 C4.860625 32.0946875 4.860625 32.0946875 0 32 C0 21.44 0 10.88 0 0 Z M5 5 C5 12.59 5 20.18 5 28 C12.25905967 28 18.24340288 27.95974319 24.0625 23.375 C25.56863484 19.55945841 25.7597589 16.02881324 25 12 C23.06658451 8.42947791 20.91644101 6.30548034 17 5 C12.99616868 4.86600297 9.0072645 4.95691113 5 5 Z " fill="#000000" transform="translate(1368,1239)"/>
<path d="M0 0 C1.010625 -0.01675781 2.02125 -0.03351563 3.0625 -0.05078125 C7.71762163 0.52491863 10.8498141 2.69668381 13.75 6.3125 C17.10803275 10.789877 17.68346015 14.83505506 17 20.3125 C15.65304195 24.79965544 13.75957051 28.20846446 9.75 30.75 C4.14683286 33.42044562 -0.78440805 33.90066931 -6.6875 32.1875 C-11.81657062 30.23314723 -14.85424978 27.55192088 -17.375 22.625 C-18.38563748 17.26862138 -18.57266782 12.02485432 -15.765625 7.18359375 C-11.33631486 1.71545057 -7.05550118 0.02699809 0 0 Z M-8 7.3125 C-10.42058911 9.48482356 -11.76508504 10.99644234 -12.34375 14.23828125 C-12.54490268 18.68878434 -11.97864343 21.837416 -9 25.3125 C-4.94184834 27.92775329 -1.80855413 29.01374748 3 28.3125 C6.00685874 26.69342222 8.2581079 25.25672632 10.375 22.5625 C11.64445272 17.9924702 11.54129064 13.93637191 10.0625 9.5 C4.78951645 3.90744168 -1.54087258 3.25971417 -8 7.3125 Z " fill="#000000" transform="translate(712,1238.6875)"/>
<path d="M0 0 C5 0 5 0 6.80517578 1.49707031 C7.3464209 2.18381836 7.88766602 2.87056641 8.4453125 3.578125 C9.04730469 4.32707031 9.64929687 5.07601563 10.26953125 5.84765625 C11.18798828 7.03681641 11.18798828 7.03681641 12.125 8.25 C12.74503906 9.02730469 13.36507813 9.80460937 14.00390625 10.60546875 C16.7262827 14.03039396 19.37471045 17.49961393 22 21 C22.33 14.07 22.66 7.14 23 0 C24.65 0 26.3 0 28 0 C28 10.56 28 21.12 28 32 C23 32 23 32 21.078125 30.453125 C20.47484375 29.72609375 19.8715625 28.9990625 19.25 28.25 C18.57453125 27.44175781 17.8990625 26.63351562 17.203125 25.80078125 C13.37360441 20.93240135 9.67093602 15.99017865 6 11 C5.67 17.93 5.34 24.86 5 32 C3.35 32 1.7 32 0 32 C0 21.44 0 10.88 0 0 Z " fill="#000000" transform="translate(1331,1239)"/>
<path d="M0 0 C5 0 5 0 6.80517578 1.49707031 C7.3464209 2.18381836 7.88766602 2.87056641 8.4453125 3.578125 C9.04730469 4.32707031 9.64929687 5.07601563 10.26953125 5.84765625 C11.18798828 7.03681641 11.18798828 7.03681641 12.125 8.25 C12.74503906 9.02730469 13.36507813 9.80460937 14.00390625 10.60546875 C16.7262827 14.03039396 19.37471045 17.49961393 22 21 C22.33 14.07 22.66 7.14 23 0 C24.65 0 26.3 0 28 0 C28 10.56 28 21.12 28 32 C23 32 23 32 21.078125 30.453125 C20.47484375 29.72609375 19.8715625 28.9990625 19.25 28.25 C18.57453125 27.44175781 17.8990625 26.63351562 17.203125 25.80078125 C13.37360441 20.93240135 9.67093602 15.99017865 6 11 C5.67 17.93 5.34 24.86 5 32 C3.35 32 1.7 32 0 32 C0 21.44 0 10.88 0 0 Z " fill="#000000" transform="translate(1156,1239)"/>
<path d="M0 0 C5 0 5 0 6.80517578 1.49707031 C7.3464209 2.18381836 7.88766602 2.87056641 8.4453125 3.578125 C9.04730469 4.32707031 9.64929687 5.07601563 10.26953125 5.84765625 C11.18798828 7.03681641 11.18798828 7.03681641 12.125 8.25 C12.74503906 9.02730469 13.36507813 9.80460937 14.00390625 10.60546875 C16.7262827 14.03039396 19.37471045 17.49961393 22 21 C22.33 14.07 22.66 7.14 23 0 C24.65 0 26.3 0 28 0 C28 10.56 28 21.12 28 32 C23 32 23 32 21.078125 30.453125 C20.47484375 29.72609375 19.8715625 28.9990625 19.25 28.25 C18.57453125 27.44175781 17.8990625 26.63351562 17.203125 25.80078125 C13.37360441 20.93240135 9.67093602 15.99017865 6 11 C5.67 17.93 5.34 24.86 5 32 C3.35 32 1.7 32 0 32 C0 21.44 0 10.88 0 0 Z " fill="#000000" transform="translate(1086,1239)"/>
<path d="M0 0 C2.84625 -0.061875 5.6925 -0.12375 8.625 -0.1875 C9.51010254 -0.21481201 10.39520508 -0.24212402 11.30712891 -0.27026367 C16.2627126 -0.32212832 19.77846121 0.1098696 24 3 C26.39015468 6.39471244 26.4625513 9.69099563 26.40234375 13.73828125 C25.72728205 17.53304558 23.71500538 19.35286975 21 22 C22.98 25.3 24.96 28.6 27 32 C23.8125 32.4375 23.8125 32.4375 20 32 C17.82857115 29.9521921 16.31305984 27.67452741 15 25 C15 24.34 15 23.68 15 23 C11.7 23 8.4 23 5 23 C5 25.97 5 28.94 5 32 C3.35 32 1.7 32 0 32 C0 21.44 0 10.88 0 0 Z M5 5 C5 9.29 5 13.58 5 18 C12.58517674 18.70572387 12.58517674 18.70572387 19.25 15.8125 C21.26254161 13.17076938 21.26254161 13.17076938 20.875 10.3125 C20.05240185 8.02001868 20.05240185 8.02001868 19 6 C15.85069107 4.95023036 13.61185544 4.89868405 10.3125 4.9375 C8.559375 4.958125 6.80625 4.97875 5 5 Z " fill="#000000" transform="translate(735,1239)"/>
<path d="M0 0 C1.65 0 3.3 0 5 0 C5.33 4.95 5.66 9.9 6 15 C7.50240234 13.37578125 7.50240234 13.37578125 9.03515625 11.71875 C10.37664949 10.31158926 11.71915072 8.90538898 13.0625 7.5 C13.71927734 6.78457031 14.37605469 6.06914063 15.05273438 5.33203125 C19.9831569 0.23159416 19.9831569 0.23159416 23.05810547 -0.46875 C24.99609375 -0.46875 24.99609375 -0.46875 28 0 C25.00260985 3.59261656 22.0165749 7.02463516 18.5625 10.1875 C17.716875 11.115625 16.87125 12.04375 16 13 C16.28750265 16.10165973 17.4662571 17.87886871 19.50390625 20.1640625 C19.99697266 20.72867187 20.49003906 21.29328125 20.99804688 21.875 C21.77245117 22.74125 21.77245117 22.74125 22.5625 23.625 C28 29.74302974 28 29.74302974 28 32 C24.796875 32.34375 24.796875 32.34375 21 32 C18.453125 29.59375 18.453125 29.59375 16.25 26.5 C14.89347315 24.62173206 13.4877802 22.77610969 12 21 C9.10782213 20.73795129 9.10782213 20.73795129 7.375 22 C5.21764945 25.13796443 5.30865344 28.23442808 5 32 C3.35 32 1.7 32 0 32 C0 21.44 0 10.88 0 0 Z " fill="#000000" transform="translate(1268,1239)"/>
<path d="M0 0 C7.92 0 15.84 0 24 0 C24 1.65 24 3.3 24 5 C18.06 5 12.12 5 6 5 C6 7.97 6 10.94 6 14 C11.28 14 16.56 14 22 14 C22 15.32 22 16.64 22 18 C16.72 18 11.44 18 6 18 C6 21.3 6 24.6 6 28 C11.94 28 17.88 28 24 28 C24 29.32 24 30.64 24 32 C16.08 32 8.16 32 0 32 C0 21.44 0 10.88 0 0 Z " fill="#000000" transform="translate(1300,1239)"/>
<path d="M0 0 C7.92 0 15.84 0 24 0 C24 1.65 24 3.3 24 5 C18.06 5 12.12 5 6 5 C6 7.97 6 10.94 6 14 C11.28 14 16.56 14 22 14 C22 15.32 22 16.64 22 18 C16.72 18 11.44 18 6 18 C6 21.3 6 24.6 6 28 C11.94 28 17.88 28 24 28 C24 29.32 24 30.64 24 32 C16.08 32 8.16 32 0 32 C0 21.44 0 10.88 0 0 Z " fill="#000000" transform="translate(1225,1239)"/>
<path d="M0 0 C7.92 0 15.84 0 24 0 C24 1.65 24 3.3 24 5 C18.06 5 12.12 5 6 5 C6 7.97 6 10.94 6 14 C11.28 14 16.56 14 22 14 C22 15.32 22 16.64 22 18 C16.72 18 11.44 18 6 18 C6 21.3 6 24.6 6 28 C11.94 28 17.88 28 24 28 C24 29.32 24 30.64 24 32 C16.08 32 8.16 32 0 32 C0 21.44 0 10.88 0 0 Z " fill="#000000" transform="translate(531,1239)"/>
<path d="M0 0 C1.98 0 3.96 0 6 0 C6.42410156 0.90878906 6.84820313 1.81757812 7.28515625 2.75390625 C7.56544678 3.35436768 7.8457373 3.9548291 8.13452148 4.57348633 C8.75822914 5.91033091 9.38143085 7.24741165 10.00415039 8.5847168 C11.66554103 12.15067928 13.3353265 15.71222517 15.0234375 19.265625 C15.3443335 19.94423584 15.66522949 20.62284668 15.99584961 21.32202148 C16.61598976 22.63288554 17.23912653 23.94233682 17.86547852 25.25024414 C20 29.77513519 20 29.77513519 20 32 C18.02 32 16.04 32 14 32 C11 26.25 11 26.25 11 24 C5.72 24 0.44 24 -5 24 C-5.66 25.98 -6.32 27.96 -7 30 C-7.33 30.66 -7.66 31.32 -8 32 C-9.98 32 -11.96 32 -14 32 C-12.65881434 27.7538396 -11.05787106 23.76265908 -9.1796875 19.7265625 C-8.64472656 18.57285156 -8.10976563 17.41914062 -7.55859375 16.23046875 C-7.00300781 15.04066406 -6.44742188 13.85085938 -5.875 12.625 C-5.30569502 11.39987642 -4.73668183 10.17461721 -4.16796875 8.94921875 C-2.7815068 5.96480066 -1.3920964 2.98179297 0 0 Z M2 8 C-0.475 13.94 -0.475 13.94 -3 20 C0.96 20 4.92 20 9 20 C7.35 16.04 5.7 12.08 4 8 C3.34 8 2.68 8 2 8 Z " fill="#000000" transform="translate(951,1239)"/>
<path d="M0 0 C1.98 0 3.96 0 6 0 C20 27.36040609 20 27.36040609 20 32 C18.02 32 16.04 32 14 32 C12.515 28.535 12.515 28.535 11 25 C5.72 24.67 0.44 24.34 -5 24 C-5.66 26.31 -6.32 28.62 -7 31 C-8 32 -8 32 -11.0625 32.0625 C-12.031875 32.041875 -13.00125 32.02125 -14 32 C-4.28699135 9.19872014 -4.28699135 9.19872014 0 0 Z M3 7 C2.15930585 8.60032137 1.32768495 10.20541171 0.5 11.8125 C0.0359375 12.70582031 -0.428125 13.59914063 -0.90625 14.51953125 C-2.20173141 17.00568026 -2.20173141 17.00568026 -2 20 C1.63 20 5.26 20 9 20 C8.566875 18.5975 8.13375 17.195 7.6875 15.75 C7.44386719 14.96109375 7.20023438 14.1721875 6.94921875 13.359375 C5.94891677 10.87302768 4.69142391 9.0657166 3 7 Z " fill="#000000" transform="translate(1414,1239)"/>
<path d="M0 0 C1.98 0 3.96 0 6 0 C20 27.36040609 20 27.36040609 20 32 C18.02 32 16.04 32 14 32 C12.515 28.535 12.515 28.535 11 25 C5.72 24.67 0.44 24.34 -5 24 C-5.66 26.31 -6.32 28.62 -7 31 C-8 32 -8 32 -11.0625 32.0625 C-12.031875 32.041875 -13.00125 32.02125 -14 32 C-4.28699135 9.19872014 -4.28699135 9.19872014 0 0 Z M3 7 C2.15930585 8.60032137 1.32768495 10.20541171 0.5 11.8125 C0.0359375 12.70582031 -0.428125 13.59914063 -0.90625 14.51953125 C-2.20173141 17.00568026 -2.20173141 17.00568026 -2 20 C1.63 20 5.26 20 9 20 C8.566875 18.5975 8.13375 17.195 7.6875 15.75 C7.44386719 14.96109375 7.20023438 14.1721875 6.94921875 13.359375 C5.94891677 10.87302768 4.69142391 9.0657166 3 7 Z " fill="#000000" transform="translate(820,1239)"/>
<path d="M0 0 C1.4540625 0.0309375 1.4540625 0.0309375 2.9375 0.0625 C4.93369245 4.4579914 6.92745826 8.85457196 8.91894531 13.25219727 C9.59730877 14.7492472 10.27634403 16.2459929 10.95605469 17.74243164 C11.93078976 19.88869596 12.90313362 22.03602921 13.875 24.18359375 C14.18123291 24.85651962 14.48746582 25.5294455 14.80297852 26.22276306 C16.9375 30.94862829 16.9375 30.94862829 16.9375 32.0625 C14.9575 32.0625 12.9775 32.0625 10.9375 32.0625 C7.9375 26.3125 7.9375 26.3125 7.9375 24.0625 C2.6575 24.3925 -2.6225 24.7225 -8.0625 25.0625 C-9.0525 27.3725 -10.0425 29.6825 -11.0625 32.0625 C-13.0425 32.0625 -15.0225 32.0625 -17.0625 32.0625 C-14.84870166 24.96661659 -12.05005765 18.3078699 -8.9375 11.5625 C-8.48246094 10.5621875 -8.02742188 9.561875 -7.55859375 8.53125 C-3.68675214 0.07523984 -3.68675214 0.07523984 0 0 Z M-1.0625 7.0625 C-1.90040789 8.85203185 -2.73269396 10.64419695 -3.5625 12.4375 C-4.0265625 13.43523437 -4.490625 14.43296875 -4.96875 15.4609375 C-6.1916873 17.89942626 -6.1916873 17.89942626 -6.0625 20.0625 C-2.1025 20.0625 1.8575 20.0625 5.9375 20.0625 C5.15408881 18.08005108 4.36052514 16.10161141 3.5625 14.125 C3.12164063 13.02285156 2.68078125 11.92070313 2.2265625 10.78515625 C1.22708568 7.95019814 1.22708568 7.95019814 -1.0625 7.0625 Z " fill="#000000" transform="translate(1135.0625,1238.9375)"/>
<path d="M0 0 C1.4540625 0.0309375 1.4540625 0.0309375 2.9375 0.0625 C4.93369245 4.4579914 6.92745826 8.85457196 8.91894531 13.25219727 C9.59730877 14.7492472 10.27634403 16.2459929 10.95605469 17.74243164 C11.93078976 19.88869596 12.90313362 22.03602921 13.875 24.18359375 C14.18123291 24.85651962 14.48746582 25.5294455 14.80297852 26.22276306 C16.9375 30.94862829 16.9375 30.94862829 16.9375 32.0625 C14.9575 32.0625 12.9775 32.0625 10.9375 32.0625 C7.9375 26.3125 7.9375 26.3125 7.9375 24.0625 C2.6575 24.3925 -2.6225 24.7225 -8.0625 25.0625 C-9.0525 27.3725 -10.0425 29.6825 -11.0625 32.0625 C-13.0425 32.0625 -15.0225 32.0625 -17.0625 32.0625 C-14.84870166 24.96661659 -12.05005765 18.3078699 -8.9375 11.5625 C-8.48246094 10.5621875 -8.02742188 9.561875 -7.55859375 8.53125 C-3.68675214 0.07523984 -3.68675214 0.07523984 0 0 Z M-1.0625 7.0625 C-1.90040789 8.85203185 -2.73269396 10.64419695 -3.5625 12.4375 C-4.0265625 13.43523437 -4.490625 14.43296875 -4.96875 15.4609375 C-6.1916873 17.89942626 -6.1916873 17.89942626 -6.0625 20.0625 C-2.1025 20.0625 1.8575 20.0625 5.9375 20.0625 C5.15408881 18.08005108 4.36052514 16.10161141 3.5625 14.125 C3.12164063 13.02285156 2.68078125 11.92070313 2.2265625 10.78515625 C1.22708568 7.95019814 1.22708568 7.95019814 -1.0625 7.0625 Z " fill="#000000" transform="translate(1065.0625,1238.9375)"/>
<path d="M0 0 C1.14210938 -0.01417969 2.28421875 -0.02835938 3.4609375 -0.04296875 C6.46436816 0.17579966 8.10425934 0.61669363 10.625 2.1875 C10.295 3.8375 9.965 5.4875 9.625 7.1875 C8.614375 6.836875 7.60375 6.48625 6.5625 6.125 C2.70162622 4.9982552 -0.42894586 5.38218283 -4.375 6.1875 C-4.705 7.8375 -5.035 9.4875 -5.375 11.1875 C-4.55515625 11.45304687 -3.7353125 11.71859375 -2.890625 11.9921875 C-1.81296875 12.34539062 -0.7353125 12.69859375 0.375 13.0625 C1.44234375 13.41054687 2.5096875 13.75859375 3.609375 14.1171875 C10.11821267 16.427319 10.11821267 16.427319 12.625 20.1875 C12.4031457 27.1759106 12.4031457 27.1759106 9.75 30.625 C5.40363245 33.82085849 0.80314844 33.67112739 -4.375 33.1875 C-7.27231481 32.44011896 -9.6360609 31.45915029 -12.375 30.1875 C-12.705 29.5275 -13.035 28.8675 -13.375 28.1875 C-12.385 26.8675 -11.395 25.5475 -10.375 24.1875 C-9.55 24.6825 -8.725 25.1775 -7.875 25.6875 C-3.57570654 27.53005434 -1.0088198 27.49642132 3.625 27.1875 C4.285 26.8575 4.945 26.5275 5.625 26.1875 C5.13 23.7125 5.13 23.7125 4.625 21.1875 C3.81675781 20.95675781 3.00851562 20.72601562 2.17578125 20.48828125 C-9.14430843 17.03353735 -9.14430843 17.03353735 -12.375 12.1875 C-13.1196324 8.21612719 -12.74766878 6.74650317 -10.5 3.375 C-7.06002283 -0.16615297 -4.83784227 0.02717889 0 0 Z " fill="#000000" transform="translate(854.375,1238.8125)"/>
<path d="M0 0 C1.14210938 -0.01417969 2.28421875 -0.02835938 3.4609375 -0.04296875 C6.46436816 0.17579966 8.10425934 0.61669363 10.625 2.1875 C9.965 3.8375 9.305 5.4875 8.625 7.1875 C7.614375 6.836875 6.60375 6.48625 5.5625 6.125 C1.70162622 4.9982552 -1.42894586 5.38218283 -5.375 6.1875 C-5.705 7.8375 -6.035 9.4875 -6.375 11.1875 C-5.32699219 11.50203125 -4.27898437 11.8165625 -3.19921875 12.140625 C-1.8200851 12.57219063 -0.44119109 13.00452263 0.9375 13.4375 C1.62779297 13.64246094 2.31808594 13.84742188 3.02929688 14.05859375 C6.06979177 15.0280269 8.30209612 15.86330192 10.57421875 18.14453125 C12.22618963 21.35635568 12.12264241 23.64179786 11.625 27.1875 C9.08362841 30.34704305 7.47877341 31.90290886 3.625 33.1875 C-2.70637897 33.62414683 -7.48453189 32.4782376 -13.375 30.1875 C-13.045 28.2075 -12.715 26.2275 -12.375 24.1875 C-11.199375 24.6825 -10.02375 25.1775 -8.8125 25.6875 C-4.8659842 27.15694737 -1.61633187 27.68648022 2.625 27.1875 C4.62984776 26.01865894 4.62984776 26.01865894 5.625 24.1875 C5.625 23.1975 5.625 22.2075 5.625 21.1875 C4.90054687 21.00574219 4.17609375 20.82398438 3.4296875 20.63671875 C-10.2257183 17.08631324 -10.2257183 17.08631324 -12.8125 12.8125 C-13.46490781 9.76793022 -13.42744595 8.11931371 -12.375 5.1875 C-8.40161787 0.57324979 -5.99548236 0.03368249 0 0 Z " fill="#000000" transform="translate(487.375,1238.8125)"/>
<path d="M0 0 C1.14210938 -0.01417969 2.28421875 -0.02835938 3.4609375 -0.04296875 C6.46436816 0.17579966 8.10425934 0.61669363 10.625 2.1875 C10.295 3.8375 9.965 5.4875 9.625 7.1875 C8.614375 6.836875 7.60375 6.48625 6.5625 6.125 C2.70162622 4.9982552 -0.42894586 5.38218283 -4.375 6.1875 C-4.705 7.8375 -5.035 9.4875 -5.375 11.1875 C-4.55515625 11.45304687 -3.7353125 11.71859375 -2.890625 11.9921875 C-1.81296875 12.34539062 -0.7353125 12.69859375 0.375 13.0625 C1.44234375 13.41054687 2.5096875 13.75859375 3.609375 14.1171875 C10.11821267 16.427319 10.11821267 16.427319 12.625 20.1875 C12.4031457 27.1759106 12.4031457 27.1759106 9.75 30.625 C5.40363245 33.82085849 0.80314844 33.67112739 -4.375 33.1875 C-7.27231481 32.44011896 -9.6360609 31.45915029 -12.375 30.1875 C-12.705 29.5275 -13.035 28.8675 -13.375 28.1875 C-12.385 26.8675 -11.395 25.5475 -10.375 24.1875 C-9.55 24.6825 -8.725 25.1775 -7.875 25.6875 C-3.57570654 27.53005434 -1.0088198 27.49642132 3.625 27.1875 C4.285 26.8575 4.945 26.5275 5.625 26.1875 C5.13 23.7125 5.13 23.7125 4.625 21.1875 C3.81675781 20.95675781 3.00851562 20.72601562 2.17578125 20.48828125 C-9.14430843 17.03353735 -9.14430843 17.03353735 -12.375 12.1875 C-13.1196324 8.21612719 -12.74766878 6.74650317 -10.5 3.375 C-7.06002283 -0.16615297 -4.83784227 0.02717889 0 0 Z " fill="#000000" transform="translate(444.375,1238.8125)"/>
<path d="M0 0 C1.921875 1.09375 1.921875 1.09375 4.671875 3.09375 C3.681875 4.41375 2.691875 5.73375 1.671875 7.09375 C1.0428125 6.85398437 0.41375 6.61421875 -0.234375 6.3671875 C-4.43444556 4.91234378 -8.29698026 3.65713761 -12.765625 4.28125 C-16.7073839 6.28670628 -17.08899869 6.81571245 -18.515625 10.78125 C-19.28182248 14.20195102 -19.55171135 16.72120139 -18.328125 20.03125 C-16.12552243 23.40398519 -15.12772681 24.77214937 -11.328125 26.09375 C-6.5137231 26.13681263 -2.55980539 25.42549225 1.671875 23.09375 C2.661875 24.41375 3.651875 25.73375 4.671875 27.09375 C1.97429734 30.58473285 -1.09762024 31.27494263 -5.328125 32.09375 C-10.89828936 32.10343724 -15.59960689 31.17278505 -20.328125 28.09375 C-24.89343875 23.15827568 -25.69684792 19.20064241 -25.6015625 12.6640625 C-25.01877914 7.18589891 -22.61431717 4.13878113 -18.328125 0.65625 C-12.82412519 -2.08388784 -5.69606599 -2.21726059 0 0 Z " fill="#000000" transform="translate(1215.328125,1239.90625)"/>
<path d="M0 0 C7.59 0 15.18 0 23 0 C23 1.65 23 3.3 23 5 C17.06 5 11.12 5 5 5 C5 8.3 5 11.6 5 15 C10.28 15 15.56 15 21 15 C21 16.65 21 18.3 21 20 C15.72 20 10.44 20 5 20 C5 23.96 5 27.92 5 32 C3.35 32 1.7 32 0 32 C0 21.44 0 10.88 0 0 Z " fill="#000000" transform="translate(668,1239)"/>
<path d="M0 0 C8.91 0 17.82 0 27 0 C27 1.65 27 3.3 27 5 C23.7 5 20.4 5 17 5 C17 13.91 17 22.82 17 32 C15.02 32 13.04 32 11 32 C11 23.09 11 14.18 11 5 C7.37 5 3.74 5 0 5 C0 3.35 0 1.7 0 0 Z " fill="#000000" transform="translate(1021,1239)"/>
<path d="M0 0 C3.24052993 0.297657 4.6839168 0.68635289 7.02734375 3.01171875 C13.42868955 11.97883914 19.57659719 21.64103543 19 33 C17.02 33.495 17.02 33.495 15 34 C10.65992592 28.90041296 7.58324391 23.5631686 4.6875 17.5625 C4.33816406 16.85939697 3.98882813 16.15629395 3.62890625 15.43188477 C1.19634879 10.24534185 0.38849486 5.71481568 0 0 Z " fill="#1D3989" transform="translate(1406,839)"/>
<path d="M0 0 C8.91 0 17.82 0 27 0 C27 1.65 27 3.3 27 5 C23.37 5 19.74 5 16 5 C16 13.91 16 22.82 16 32 C14.35 32 12.7 32 11 32 C11 23.09 11 14.18 11 5 C7.37 5 3.74 5 0 5 C0 3.35 0 1.7 0 0 Z " fill="#000000" transform="translate(500,1239)"/>
<path d="M0 0 C1.98 0 3.96 0 6 0 C6 10.56 6 21.12 6 32 C4.02 32 2.04 32 0 32 C0 21.44 0 10.88 0 0 Z " fill="#000000" transform="translate(975,1239)"/>
<path d="M0 0 C1.98 0 3.96 0 6 0 C6 10.56 6 21.12 6 32 C4.02 32 2.04 32 0 32 C0 21.44 0 10.88 0 0 Z " fill="#000000" transform="translate(872,1239)"/>
<path d="M0 0 C1.98 0 3.96 0 6 0 C6 10.56 6 21.12 6 32 C4.02 32 2.04 32 0 32 C0 21.44 0 10.88 0 0 Z " fill="#000000" transform="translate(617,1239)"/>
<path d="M0 0 C1.98 0 3.96 0 6 0 C6 10.56 6 21.12 6 32 C4.02 32 2.04 32 0 32 C0 21.44 0 10.88 0 0 Z " fill="#000000" transform="translate(462,1239)"/>
<path d="M0 0 C8.8682176 0.4031008 17.5007825 5.10459493 24 11 C27.03973718 15.31730787 29.50224256 19.92309705 29.0625 25.3125 C27.71109305 30.00267705 26.00254162 32.66497225 21.9375 35.375 C20 36 20 36 17 35 C17.78375 34.236875 18.5675 33.47375 19.375 32.6875 C22.38241519 29.60847969 23.88624121 28.00486928 24.375 23.6875 C23.72988316 17.34385111 20.01871407 13.50656294 15.28125 9.58984375 C10.47948675 6.24340943 5.20913254 3.64764932 0 1 C0 0.67 0 0.34 0 0 Z " fill="#1C3989" transform="translate(1204,824)"/>
<path d="M0 0 C11.04100298 4.8862311 22.47918912 12.11338362 27.5625 23.5 C28.11861296 27.94890365 27.22421335 30.14469685 25 34 C22.8828125 35.703125 22.8828125 35.703125 21 37 C21.10699219 36.3709375 21.21398438 35.741875 21.32421875 35.09375 C22.39187092 27.4709431 21.8016916 22.7336227 17.14453125 16.52734375 C12.59834045 11.19261012 7.78680784 7.12071851 1.87109375 3.375 C1.25363281 2.92125 0.63617187 2.4675 0 2 C0 1.34 0 0.68 0 0 Z " fill="#1D3989" transform="translate(1259,825)"/>
<path d="" fill="#152A95" transform="translate(0,0)"/>
</svg>
