<?xml version="1.0" encoding="UTF-8"?>
<svg version="1.1" xmlns="http://www.w3.org/2000/svg" width="922" height="921">
<path d="M0 0 C1.26035568 0.00332336 1.26035568 0.00332336 2.5461731 0.00671387 C8.48934539 0.02497052 14.43208232 0.06796361 20.375 0.125 C21.44019867 0.13436584 21.44019867 0.13436584 22.5269165 0.1439209 C49.26749657 0.39732492 76.33043212 2.36637942 102.6875 7.0625 C103.43588135 7.19567627 104.1842627 7.32885254 104.95532227 7.46606445 C120.86535009 10.59209191 136.06162202 15.97070853 151.1875 21.6875 C152.12021729 22.03749054 153.05293457 22.38748108 154.01391602 22.74807739 C176.86172383 31.32233732 199.47249504 40.32376467 221.375 51.125 C221.375 51.785 221.375 52.445 221.375 53.125 C222.64110107 52.96346436 223.90720215 52.80192871 225.21166992 52.63549805 C230.47908413 52.05335374 235.69284901 51.96389294 240.98828125 51.95703125 C242.48751884 51.95067909 242.48751884 51.95067909 244.01704407 51.94419861 C247.24057256 51.93434998 250.46395917 51.93427162 253.6875 51.9375 C254.7876947 51.93810425 255.8878894 51.9387085 257.02142334 51.93933105 C285.59701222 51.98203326 313.5640401 53.26218438 341.25 60.9375 C342.02077881 61.14922852 342.79155762 61.36095703 343.58569336 61.57910156 C358.27874035 65.9069775 372.17270382 72.73305427 385.83789062 79.55102539 C388.4214975 80.83561899 391.01512118 82.09839996 393.609375 83.36132812 C395.26106302 84.18099049 396.91213031 85.00190518 398.5625 85.82421875 C399.3352124 86.19721603 400.1079248 86.57021332 400.90405273 86.95451355 C403.04296875 88.0378418 403.04296875 88.0378418 406.375 90.125 C406.99731445 92.13972473 406.99731445 92.13972473 407.375 94.125 C408.72933321 96.01501425 408.72933321 96.01501425 410.375 97.75 C413.2947861 100.96457219 413.2947861 100.96457219 414.375 103.125 C414.705 102.465 415.035 101.805 415.375 101.125 C419.83512127 100.72854478 419.83512127 100.72854478 422.18359375 102.453125 C428.96199002 110.45065729 434.57831664 119.67293553 434.4375 130.375 C434.42847656 131.26703125 434.41945313 132.1590625 434.41015625 133.078125 C434.39275391 134.09132813 434.39275391 134.09132813 434.375 135.125 C432.11328125 135.4375 432.11328125 135.4375 429.375 135.125 C427.35546875 132.9375 427.35546875 132.9375 425.5625 130.125 C424.95792969 129.196875 424.35335938 128.26875 423.73046875 127.3125 C423.28316406 126.590625 422.83585937 125.86875 422.375 125.125 C422.42720703 126.24648438 422.42720703 126.24648438 422.48046875 127.390625 C422.50753906 128.37546875 422.53460937 129.3603125 422.5625 130.375 C422.61470703 131.83679688 422.61470703 131.83679688 422.66796875 133.328125 C422.31882039 136.66132805 421.75982688 137.78995364 419.375 140.125 C416.57519531 140.54199219 416.57519531 140.54199219 412.953125 140.421875 C411.92520844 140.39634552 411.92520844 140.39634552 410.87652588 140.37030029 C409.2884474 140.32862414 407.70059808 140.27762285 406.11303711 140.21948242 C403.07884581 140.1147805 400.0451191 140.04862292 397.00976562 139.98632812 C390.9723161 139.85673614 384.9371342 139.68214565 378.90136719 139.49023438 C376.37684183 139.41319947 373.85207971 139.34357795 371.32714844 139.28125 C367.62881739 139.18934221 363.93187066 139.07366894 360.234375 138.953125 C359.12157166 138.93002258 358.00876831 138.90692017 356.86224365 138.88311768 C347.64999408 138.54053416 338.30186012 137.09883675 331.1875 130.8125 C326.39075952 125.46727568 322.90872614 119.18075325 319.40917969 112.9453125 C318.47395374 111.29917354 317.49338269 109.67900006 316.5078125 108.0625 C313.31424071 102.68385278 309.96293682 96.56538572 311.375 90.125 C314.85001259 86.79231671 317.16120361 85.61421472 321.94921875 85.41015625 C323.09181152 85.3548877 324.2344043 85.29961914 325.41162109 85.24267578 C326.71953613 85.20384277 328.02745117 85.16500977 329.375 85.125 C330.91357895 85.07158787 332.45215293 85.01803249 333.99072266 84.96435547 C339.05565932 84.79932521 344.12125925 84.67921171 349.1875 84.5625 C350.95899198 84.51919001 352.73047646 84.47557233 354.50195312 84.43164062 C358.79289076 84.32588611 363.08390773 84.22427321 367.375 84.125 C360.29797444 82.98509175 353.30070972 82.90330495 346.14453125 82.88476562 C343.90846326 82.87514399 341.67334981 82.84410212 339.4375 82.8125 C329.66787228 82.74172908 320.89475959 83.94374578 311.375 86.125 C309.37751834 86.47310647 307.37818666 86.81138511 305.375 87.125 C308.81607629 98.23820954 314.47664746 108.24317213 319.90429688 118.47387695 C321.13566338 120.80071378 322.35722261 123.13250408 323.578125 125.46484375 C323.95930481 126.17527328 324.34048462 126.88570282 324.73321533 127.61766052 C326.56617637 131.125293 327.375 133.08530431 327.375 137.125 C323.20511552 135.58024734 321.43849577 132.84585167 318.875 129.3125 C310.97524041 118.70612097 301.89003612 108.2312131 291.375 100.125 C290.715 100.125 290.055 100.125 289.375 100.125 C289.79652344 100.60710937 290.21804688 101.08921875 290.65234375 101.5859375 C291.47412109 102.53339844 291.47412109 102.53339844 292.3125 103.5 C292.85777344 104.12648438 293.40304687 104.75296875 293.96484375 105.3984375 C296.49917281 108.50141103 296.71435963 111.02840063 296.65625 115.0234375 C296.19051608 118.50350484 294.65743136 120.53413197 292.375 123.125 C289.9375 124.3125 289.9375 124.3125 287.375 125.125 C286.6325 125.66125 285.89 126.1975 285.125 126.75 C279.63211264 129.49644368 273.17801575 128.53162159 267.40625 126.87109375 C256.84960494 122.99355682 249.4577076 116.01221963 244.28515625 106.10546875 C242.12455596 101.4040767 241.88265498 97.21853298 242.375 92.125 C243.69857999 88.85088108 244.48114484 87.56196179 247.65234375 86.01171875 C254.45282096 83.79692919 261.73848121 84.78269925 268.375 87.125 C269.48875 87.49625 270.6025 87.8675 271.75 88.25 C272.61625 88.53875 273.4825 88.8275 274.375 89.125 C274.705 89.125 275.035 89.125 275.375 89.125 C258.50043484 79.53717888 239.40747459 77.61355871 220.5 74.6875 C219.2414621 74.49146179 217.98292419 74.29542358 216.68624878 74.09344482 C168.97467577 66.68406852 121.61569659 62.93770169 73.375 61.125 C72.385 59.145 72.385 59.145 71.375 57.125 C110.315 55.805 149.255 54.485 189.375 53.125 C183.16509103 52.5040091 177.28381098 51.97753376 171.09667969 51.99560547 C170.33386185 51.99385315 169.57104401 51.99210083 168.78511047 51.99029541 C166.28900802 51.98593491 163.79297805 51.98880024 161.296875 51.9921875 C159.52215563 51.99151142 157.74743635 51.99053889 155.97271729 51.98928833 C152.25084553 51.98781797 148.52899784 51.98993946 144.80712891 51.99462891 C140.13244118 52.00024354 135.45781145 51.99700609 130.78312588 51.99118042 C110.28262334 51.96961324 89.83713027 52.2153158 69.35150146 53.01593018 C62.83867498 53.25458379 56.32949885 53.34624325 49.8125 53.375 C47.96108398 53.4059375 47.96108398 53.4059375 46.07226562 53.4375 C30.89486775 53.50157345 19.91790562 50.60722845 9.03125 39.87109375 C7.21723534 38.05384423 5.41453422 36.22650681 3.61962891 34.39038086 C-1.47468692 29.19307276 -6.85896029 24.56965561 -12.625 20.125 C-13.18703125 19.6913916 -13.7490625 19.2577832 -14.328125 18.81103516 C-16.67658578 17.00055058 -19.02503937 15.19036481 -21.38696289 13.39746094 C-23.58751018 11.72375754 -25.66724514 10.08275486 -27.625 8.125 C-27.8125 5.0625 -27.8125 5.0625 -27.625 2.125 C-22.89358241 -2.60641759 -6.62728392 -0.0231424 0 0 Z " fill="#1C3889" transform="translate(453.625,318.875)"/>
<path d="M0 0 C8.25815214 -0.09276991 16.51608577 -0.16379982 24.77463055 -0.20724869 C28.60962547 -0.22810438 32.44426331 -0.25638415 36.27905273 -0.30175781 C39.98139253 -0.34528908 43.68338934 -0.36915229 47.38596535 -0.37950897 C48.79696869 -0.38688742 50.20795372 -0.40129614 51.61881065 -0.42292023 C53.59814448 -0.45204479 55.57782502 -0.45363467 57.55737305 -0.45410156 C58.68322311 -0.46298401 59.80907318 -0.47186646 60.96903992 -0.48101807 C64.70833727 0.11241422 66.35975246 1.32702576 69 4 C69.8125 7.25 69.8125 7.25 70 10 C71.49923475 10.46083035 72.99943974 10.91850426 74.5 11.375 C75.3353125 11.63023437 76.170625 11.88546875 77.03125 12.1484375 C78.50078125 12.56996094 78.50078125 12.56996094 80 13 C81.18722656 13.34289062 82.37445312 13.68578125 83.59765625 14.0390625 C88.98400626 15.35511014 94.41763501 15.65298517 99.9375 16 C101.76643799 16.12072876 101.76643799 16.12072876 103.63232422 16.24389648 C121.58258221 17.38542252 139.56624594 17.99606981 157.53852844 18.67553711 C163.02393864 18.88319909 168.50826184 19.10394239 173.9921875 19.34765625 C208.32920829 20.84673122 238.93301649 19.19496964 272.41064453 11.13696289 C273.65115067 10.84066231 273.65115067 10.84066231 274.91671753 10.53837585 C276.46908439 10.16664433 278.02039491 9.79045874 279.57034302 9.4087677 C284.70195029 8.18189943 289.74638547 7.50099236 295 7 C298.76072822 18.32695523 298.76072822 18.32695523 298 23 C293.72939394 29.89867133 287.21719925 32.64975211 279.6875 34.5625 C278.86411133 34.77302002 278.04072266 34.98354004 277.19238281 35.20043945 C251.32414238 41.44209962 223.68732562 41.77665863 197.1875 42.54296875 C196.10650874 42.57465873 196.10650874 42.57465873 195.00367928 42.60698891 C177.98224969 43.09622665 160.96506338 43.19932315 143.9375 43.1875 C143.16593819 43.18738041 142.39437637 43.18726082 141.5994339 43.1871376 C100.97008873 43.17922265 60.46051917 41.87699935 20 38 C18.78700226 37.88688477 18.78700226 37.88688477 17.54949951 37.77148438 C15.05139122 37.53505101 12.55498296 37.28513645 10.05859375 37.03125 C9.28258316 36.95845825 8.50657257 36.8856665 7.70704651 36.81066895 C2.2297265 36.2297265 2.2297265 36.2297265 0 34 C-0.17502995 31.41896694 -0.23162279 28.94691837 -0.1953125 26.3671875 C-0.1924826 25.61535187 -0.18965271 24.86351624 -0.18673706 24.08889771 C-0.17552874 21.68410422 -0.15042352 19.27968119 -0.125 16.875 C-0.11497102 15.24609912 -0.10584503 13.61719242 -0.09765625 11.98828125 C-0.07558735 7.99204444 -0.04105351 3.99608506 0 0 Z " fill="#1C3888" transform="translate(609,508)"/>
<path d="M0 0 C1.54140725 1.47885014 3.0643103 2.97738329 4.5625 4.5 C5.1503125 5.08910156 5.738125 5.67820312 6.34375 6.28515625 C10.49619595 10.74120084 13.98736656 15.72371652 17.5 20.6875 C18.24624634 21.72209351 18.24624634 21.72209351 19.00756836 22.77758789 C23.27834407 28.94864574 23.27834407 28.94864574 22.5625 33.5 C14.35221999 34.55661644 6.13117688 34.91016784 -2.1328125 35.25390625 C-3.6747267 35.31979564 -5.21663744 35.38576627 -6.75854492 35.45181274 C-10.85142029 35.62559458 -14.94450241 35.79387372 -19.03769684 35.95995712 C-21.56290661 36.06251651 -24.08806353 36.16631494 -26.61322021 36.27017212 C-50.89353613 37.2626238 -75.1340915 37.98093816 -99.4375 37.5 C-99.95626709 36.56913574 -100.47503418 35.63827148 -101.00952148 34.67919922 C-104.53819849 28.39412941 -108.0058276 22.28210516 -112.5 16.625 C-113.12334229 15.82823853 -113.12334229 15.82823853 -113.75927734 15.01538086 C-116.71939473 11.26821647 -119.8701824 7.74311955 -123.2578125 4.37890625 C-124.9202868 1.73105811 -124.63524541 -0.44354374 -124.4375 -3.5 C-109.10024615 -12.50445226 -90.9094442 -16.90926094 -73.4375 -19.5 C-72.62925781 -19.63019531 -71.82101562 -19.76039063 -70.98828125 -19.89453125 C-45.85891835 -23.37826918 -19.24767145 -16.91462036 0 0 Z " fill="#1D3988" transform="translate(431.4375,347.5)"/>
<path d="M0 0 C0 0.66 0 1.32 0 2 C-0.81339844 2.20044922 -1.62679688 2.40089844 -2.46484375 2.60742188 C-49.60161907 14.29882678 -87.86236624 30.47512145 -123.9375 63.5 C-129.39870126 68.44483768 -135.1379655 72.99015182 -140.98828125 77.45947266 C-142.36774966 78.51583742 -143.74253055 79.57834346 -145.11328125 80.64599609 C-156.87629826 89.78949577 -169.08491027 97.4425304 -182.20361328 104.49462891 C-184.7912704 105.88763518 -187.36330311 107.30576367 -189.93359375 108.73046875 C-228.40307711 129.76774064 -270.27027318 144.00999439 -312 157 C-313.73975098 157.54454834 -313.73975098 157.54454834 -315.51464844 158.10009766 C-318.42129574 159.00186682 -321.33284819 159.88290547 -324.25 160.75 C-325.0342334 160.99032959 -325.8184668 161.23065918 -326.62646484 161.47827148 C-331.88016851 162.98423999 -336.53547068 163.19439037 -342 163 C-339.31820063 160.82763741 -337.01603523 159.4756756 -333.72338867 158.45703125 C-332.88161575 158.19202316 -332.03984283 157.92701508 -331.17256165 157.65397644 C-329.80903816 157.2374456 -329.80903816 157.2374456 -328.41796875 156.8125 C-327.46435959 156.51374466 -326.51075043 156.21498932 -325.52824402 155.90718079 C-323.481026 155.26592836 -321.43281682 154.62783334 -319.38372803 153.99258423 C-314.00557559 152.32240637 -308.63745972 150.62067172 -303.26953125 148.91796875 C-301.67268494 148.4117524 -301.67268494 148.4117524 -300.0435791 147.89530945 C-247.63820295 131.2284996 -194.17521245 109.86744562 -151 75 C-149.43904881 73.81046485 -147.87666717 72.62280315 -146.3125 71.4375 C-142.16473859 68.20893114 -138.28023233 64.72498504 -134.3984375 61.18359375 C-131.6641374 58.69422281 -128.88004128 56.26877826 -126.08203125 53.8515625 C-124.61284551 52.54500708 -123.17520667 51.20255584 -121.76171875 49.8359375 C-109.44854106 38.07809753 -94.75419296 28.43342112 -80 20 C-79.34338379 19.61924316 -78.68676758 19.23848633 -78.01025391 18.84619141 C-55.93257113 6.16796784 -26.00839678 -7.57775511 0 0 Z " fill="#1C3889" transform="translate(362,315)"/>
<path d="M0 0 C14.56228985 -0.51802612 27.31483871 -0.89817345 38.984375 9.11328125 C39.64953125 9.73589844 40.3146875 10.35851562 41 11 C41.60328125 11.55042969 42.2065625 12.10085938 42.828125 12.66796875 C59.61873839 29.79893241 61.41000543 55.29901053 61.21484375 77.80859375 C60.83076473 96.31833983 55.18579843 114.58230499 42.3125 128.25 C32.85556817 137.30814555 22.55453083 141.39719404 9.5625 141.125 C8.73556641 141.11597656 7.90863281 141.10695313 7.05664062 141.09765625 C5.03763292 141.07431512 3.01877644 141.03845288 1 141 C1 140.01 1 139.02 1 138 C2.03898438 137.72027344 3.07796875 137.44054687 4.1484375 137.15234375 C15.58046146 133.92996773 25.33062479 130.16693679 31.703125 119.48046875 C44.47414171 95.05397596 49.08272652 62.63959782 41 36 C37.47672225 25.45473632 32.40826482 13.22000152 22.25 7.5625 C15.19720042 4.60757211 7.51783656 3.19348444 0 2 C0 1.34 0 0.68 0 0 Z " fill="#1C3989" transform="translate(531,432)"/>
<path d="M0 0 C7.06635226 3.90712543 11.61898249 11.45551705 16 18 C16.60585938 18.87398438 17.21171875 19.74796875 17.8359375 20.6484375 C21.38107129 26.0576792 22.71898039 29.52917646 22 36 C18.05375623 37.31541459 14.26028174 37.17615218 10.14453125 37.2109375 C8.31712776 37.23678836 6.48973532 37.26343033 4.66235352 37.29077148 C3.22800461 37.31069656 3.22800461 37.31069656 1.76467896 37.33102417 C-15.02016412 37.58105217 -31.41446023 38.22666833 -48 41 C-49.3657196 41.21459963 -50.73159299 41.42822398 -52.09765625 41.640625 C-54.73851931 42.06510356 -57.37072097 42.50989316 -60 43 C-52.09147625 21.45967874 -31.58852844 11.55379809 -12.6328125 1.15234375 C-8.32807234 -0.73177843 -4.59176738 -0.96255993 0 0 Z " fill="#1C3888" transform="translate(301,350)"/>
<path d="M0 0 C13.99669309 -0.25936753 27.65523154 0.48089887 41.57421875 1.90625 C43.63441926 2.10961285 45.69471495 2.31201348 47.75509644 2.51353455 C52.12918846 2.94291821 56.50267719 3.37783959 60.87576294 3.81735229 C71.32411264 4.86676979 81.77556479 5.88462137 92.22672081 6.90563774 C95.79988607 7.2549644 99.37294582 7.60535629 102.94599915 7.95582581 C125.21619611 10.13662832 147.49697776 12.19111419 169.78433609 14.18814087 C172.50812692 14.43261965 175.23179012 14.67847164 177.95541382 14.92480469 C226.6412439 19.34172758 226.6412439 19.34172758 275.4375 22.1875 C277.28322874 22.26960857 279.12893189 22.35229421 280.97460938 22.43554688 C285.3161471 22.6302098 289.657932 22.81756567 294 23 C294 23.66 294 24.32 294 25 C275.68943028 25.14189033 257.37900839 25.24679389 239.0680027 25.31087303 C230.56060644 25.34145323 222.05356087 25.38311195 213.54638672 25.45263672 C143.52417699 26.0119768 143.52417699 26.0119768 111.31671143 19.96746826 C105.19375894 18.83084028 99.04502489 17.87124464 92.89208984 16.91259766 C90.54885427 16.54679109 88.20562313 16.18095619 85.86239624 15.81509399 C84.68254528 15.63094563 83.50269432 15.44679726 82.2870903 15.25706863 C76.39821737 14.33202133 70.51350854 13.3814675 64.62890625 12.4296875 C62.87905961 12.14682105 62.87905961 12.14682105 61.09386253 11.85824013 C58.72206392 11.4747471 56.35028168 11.09115281 53.97851562 10.7074585 C47.8624241 9.71887683 41.74563065 8.73465679 35.62890625 7.75 C23.75193821 5.83744818 11.87571558 3.9203124 0 2 C0 1.34 0 0.68 0 0 Z " fill="#1C3888" transform="translate(165,525)"/>
<path d="M0 0 C-3.93918859 10.43343966 -14.44909096 15.60367418 -24.08349609 20.15869141 C-41.28428782 27.70951029 -60.40199827 28.43408986 -78 22 C-88.3900166 17.87537637 -96.51781845 12.26328841 -104 4 C-104 3.34 -104 2.68 -104 2 C-100.9455073 0.98183577 -98.78794684 0.84560011 -95.58691406 0.79467773 C-94.47047516 0.77473755 -93.35403625 0.75479736 -92.20376587 0.73425293 C-90.98667938 0.7175354 -89.7695929 0.70081787 -88.515625 0.68359375 C-87.24753998 0.66276733 -85.97945496 0.64194092 -84.67294312 0.6204834 C-81.2410106 0.56467375 -77.80901392 0.51531231 -74.37696075 0.46757126 C-72.25622704 0.43758804 -70.1355289 0.40576891 -68.01483154 0.37332153 C-45.34284693 0.02734675 -22.67466447 -0.13859819 0 0 Z " fill="#1C3889" transform="translate(848,555)"/>
<path d="M0 0 C4.37248068 3.1392169 7.23299705 6.55394303 10.375 10.9375 C16.32930806 19.04252802 22.18431762 23.65855962 32 26 C36.80570215 26.63045912 41.62417475 26.90747185 46.4609375 27.17578125 C47.926426 27.26616034 49.39184821 27.35761952 50.85720825 27.45005798 C54.85688971 27.69931332 58.85732884 27.93351782 62.85806274 28.16517639 C67.10969531 28.41403673 71.36045378 28.67703876 75.61132812 28.93847656 C83.0278665 29.39270242 90.44489579 29.83806147 97.86230469 30.27783203 C110.80745513 31.04557082 123.75139932 31.83281045 136.6953125 32.62109375 C141.1935139 32.89491082 145.69172338 33.16859475 150.18994141 33.44213867 C151.29515577 33.50934899 152.40037014 33.57655931 153.53907585 33.64580631 C161.19822672 34.1111632 168.85759987 34.57273211 176.51708984 35.0324707 C178.59601899 35.15742643 180.67494763 35.28239066 182.75387573 35.40736389 C186.60662944 35.63894961 190.4594399 35.86955769 194.31228638 36.09959412 C203.87977772 36.67332795 213.44171016 37.28661696 223 38 C223 38.66 223 39.32 223 40 C115.15237344 40.39109608 115.15237344 40.39109608 63.26425934 39.24684906 C60.50629581 39.18763517 57.74827281 39.13382544 54.99017334 39.08135986 C50.68970012 38.99833432 46.38984658 38.90017494 42.09000778 38.78912163 C40.53963881 38.75077337 38.98915567 38.7167351 37.43858719 38.68754768 C19.50291861 38.33782778 19.50291861 38.33782778 12.765625 33.34375 C5.50164469 24.5071554 -0.92663654 11.73739618 0 0 Z " fill="#1C3889" transform="translate(247,457)"/>
<path d="M0 0 C1.05574219 0.03867187 1.05574219 0.03867187 2.1328125 0.078125 C10.21804146 0.43296263 16.97684454 3.2739638 22.95703125 8.8125 C27.31026735 13.72710231 29.77674946 18.30248384 30 25 C28.55324329 29.23137446 26.53031189 33.16531607 23 36 C21.07923838 36.06623316 19.15443772 36.11534034 17.234375 36.03125 C14.95014135 35.99930268 12.87935065 36.27325735 10.625 36.625 C1.80595295 37.65363671 -6.69464652 34.92187763 -14 30 C-20.20854236 24.3817435 -24.3233317 18.82126164 -25.5 10.4375 C-24.84570423 5.93921661 -23.2575896 4.11280784 -20 1 C-14.29268788 -2.58745333 -6.30291249 -1.41815531 0 0 Z M23 22 C24 26 24 26 24 26 Z " fill="#1C3888" transform="translate(667,405)"/>
<path d="M0 0 C0.92373413 0.00299103 1.84746826 0.00598206 2.79919434 0.00906372 C35.49499265 0.12732168 68.1949639 1.57117639 100.86666679 2.72026825 C118.88811695 3.35384634 136.91145462 3.89088767 154.9375 4.375 C152.76967936 7.00412476 151.55283026 8.2546267 148.15708923 8.91891479 C147.05716141 8.93906647 145.95723358 8.95921814 144.82397461 8.97998047 C142.86446617 9.02748947 142.86446617 9.02748947 140.8653717 9.07595825 C139.37770287 9.09045477 137.89002619 9.10416192 136.40234375 9.1171875 C134.79196908 9.14496018 133.1816126 9.17380303 131.5712738 9.20358276 C125.69355966 9.29990336 119.81585865 9.34021498 113.9375 9.375 C112.1777673 9.38594444 112.1777673 9.38594444 110.38248444 9.39710999 C91.35080407 9.50926621 72.31949647 9.51875008 53.28756177 9.50357223 C47.24383351 9.49924106 41.20012625 9.50231932 35.15639931 9.5071975 C29.20618649 9.51179924 23.25598246 9.51234588 17.30576843 9.50975883 C13.80208755 9.50823636 10.29842055 9.50788646 6.79474068 9.51129532 C-12.1816074 9.52394573 -31.10300738 9.12645531 -50.0625 8.375 C-37.37850625 -1.52522217 -15.42420105 -0.13373893 0 0 Z " fill="#1C3888" transform="translate(301.0625,502.625)"/>
<path d="M0 0 C0.99 0 1.98 0 3 0 C3.74734361 4.65214935 4.11936092 9.09867942 4.09765625 13.80859375 C4.09443359 15.04931641 4.09121094 16.29003906 4.08789062 17.56835938 C4.07532227 19.48358398 4.07532227 19.48358398 4.0625 21.4375 C4.05798828 22.74138672 4.05347656 24.04527344 4.04882812 25.38867188 C4.03709261 28.59246777 4.0191587 31.7962399 4 35 C10.6 35.66 17.2 36.32 24 37 C22.07560905 44.69756381 16.3467728 50.45555619 10 55 C9.37480469 55.46535156 8.74960937 55.93070313 8.10546875 56.41015625 C-5.10903329 64.57695661 -28.09560586 63.33794418 -43 61 C-42.46875 59.2265625 -42.46875 59.2265625 -41 57 C-38.50857751 55.66697255 -36.07898206 54.50521479 -33.5 53.375 C-18.69857208 46.36709824 -10.52891518 34.4672487 -4.6875 19.5 C-2.54980962 13.14393394 -1.26712846 6.57562876 0 0 Z " fill="#1C3889" transform="translate(594,516)"/>
</svg>
